<?xml version="1.0" standalone="no"?>
<!DOCTYPE svg PUBLIC "-//W3C//DTD SVG 1.1//EN" "http://www.w3.org/Graphics/SVG/1.1/DTD/svg11.dtd" >
<svg>
<metadata>
Created by FontForge 20110222 at Mon Mar  7 12:53:31 2011
 By www-data
Copyright [c] 2008 by ShyFoundry. All rights reserved. Freeware for personal use only. To purchase a commercial license, please visit our site at http://www.shyfoundry.com.
</metadata>
<defs>
<font id="SFFlorencesansSCOutline" horiz-adv-x="723" >
  <font-face
    font-family="SF Florencesans SC Outline"
    font-weight="400"
    font-stretch="normal"
    units-per-em="1000"
    panose-1="2 0 5 3 0 0 0 0 0 0"
    ascent="800"
    descent="-200"
    x-height="651"
    cap-height="721"
    bbox="-23 -214 1253 899"
    underline-thickness="20"
    underline-position="-143"
    unicode-range="U+0020-2122"
  />
    <missing-glyph />
    <glyph glyph-name="space" unicode=" " horiz-adv-x="436"
 />
    <glyph glyph-name="exclam" unicode="!" horiz-adv-x="294"
d="M208 61c0 34 -27 61 -61 61c-35 0 -61 -26 -61 -61c0 -36 25 -61 61 -61c35 0 61 26 61 61zM173 192l18 508h-88l18 -508h52zM194 192c0 -12 -9 -21 -21 -21h-52c-12 0 -21 9 -21 21l-18 507c0 12 10 22 21 22h88c11 0 21 -10 21 -22zM229 61c0 -46 -36 -82 -82 -82
c-47 0 -82 35 -82 82s35 82 82 82c46 0 82 -36 82 -82z" />
    <glyph glyph-name="quotedbl" unicode="&#x22;" horiz-adv-x="504"
d="M208 735h-122l38 -240c3 -15 11 -23 23 -23s20 8 23 23zM418 735h-122l38 -240c3 -15 11 -23 23 -23s20 8 23 23zM401 492c-6 -29 -18 -41 -44 -41s-38 12 -44 41l-38 239c0 16 4 25 21 25h122c10 2 21 -6 21 -25zM191 492c-6 -29 -18 -41 -44 -41s-38 12 -44 41l-38 239
c0 16 4 25 21 25h122c10 2 21 -6 21 -25z" />
    <glyph glyph-name="numbersign" unicode="#" horiz-adv-x="626"
d="M266 472h105l-10 -105h-105zM425 297h116v70h-110l10 105h100v70h-94l9 105h-70l-9 -105h-105l9 105h-70l-9 -105h-116v-70h110l-10 -105h-100v-70h94l-9 -105h70l9 105h105l-9 -105h70zM444 276l-7 -85c0 -11 -11 -20 -21 -20h-70c-12 0 -21 10 -21 23l7 82h-63l-7 -85
c0 -11 -11 -20 -21 -20h-70c-12 0 -21 10 -21 23l7 82h-71c-12 0 -21 9 -21 21v70c0 12 9 21 21 21h81l5 63h-86c-12 0 -21 9 -21 21v70c0 12 9 21 21 21h97l7 86c1 13 8 19 21 19h70c9 0 21 -7 21 -22l-7 -83h63l7 86c1 13 8 19 21 19h70c9 0 21 -7 21 -22l-7 -83h71
c11 0 21 -10 21 -21v-70c0 -10 -10 -21 -21 -21h-81l-6 -63h87c11 0 21 -10 21 -21v-70c0 -10 -10 -21 -21 -21h-97zM285 451l-6 -63h63l5 63h-62z" />
    <glyph glyph-name="dollar" unicode="$" horiz-adv-x="731"
d="M558 189c0 -66 -50 -105 -149 -116v228c110 -20 149 -49 149 -112zM322 400c-93 19 -131 52 -131 113c0 59 44 97 131 113v-226zM646 189c0 117 -63 169 -237 197v240c88 -16 132 -54 132 -113h87c0 104 -86 184 -219 202v72h-87v-72c-131 -18 -219 -98 -219 -202
c0 -116 65 -175 219 -198v-242c-127 13 -149 80 -149 116h-87c0 -108 90 -186 236 -204v-73h87v73c147 18 237 95 237 204zM667 189c0 -113 -92 -199 -237 -222v-55c0 -11 -10 -21 -21 -21h-87c-10 0 -21 10 -21 21v55c-142 21 -236 109 -236 222c0 11 10 21 21 21h87
c11 0 21 -10 21 -21c0 -46 43 -83 107 -92v200c-152 28 -219 94 -219 216c0 109 88 197 219 220v54c0 12 9 21 21 21h87c12 0 21 -9 21 -21v-54c116 -19 219 -100 219 -220c0 -12 -9 -21 -21 -21h-87c-12 0 -21 9 -21 21c0 44 -30 73 -90 87v-197c156 -27 237 -79 237 -214z
M537 189c0 47 -30 71 -107 86v-178c71 12 107 43 107 92zM301 426v174c-58 -14 -89 -44 -89 -87c0 -45 27 -72 89 -87z" />
    <glyph glyph-name="percent" unicode="%" horiz-adv-x="915"
d="M366 542c0 -57 -48 -105 -105 -105c-59 0 -105 46 -105 105s46 105 105 105s105 -46 105 -105zM759 157c0 -59 -46 -105 -105 -105c-57 0 -105 48 -105 105c0 59 46 105 105 105c61 0 105 -44 105 -105zM436 542c0 97 -78 175 -175 175c-99 0 -175 -76 -175 -175
s76 -175 175 -175c97 0 175 78 175 175zM199 0l604 700h-87l-604 -700h87zM829 157c0 98 -77 175 -175 175s-175 -77 -175 -175s77 -175 175 -175s175 77 175 175zM850 157c0 -110 -87 -196 -196 -196c-110 0 -196 86 -196 196s86 196 196 196c109 0 196 -87 196 -196z
M457 542c0 -109 -87 -196 -196 -196c-110 0 -196 86 -196 196s86 196 196 196c109 0 196 -87 196 -196zM215 -14c-2 -2 -12 -7 -16 -7h-87c-12 0 -22 9 -22 20c0 5 2 10 6 15l604 700c2 2 12 7 16 7h87c12 0 21 -9 21 -21c0 -5 -1 -10 -5 -14zM738 157c0 49 -35 84 -84 84
c-47 0 -84 -37 -84 -84c0 -46 38 -84 84 -84c47 0 84 37 84 84zM345 542c0 47 -37 84 -84 84s-84 -37 -84 -84c0 -36 27 -84 84 -84c46 0 84 38 84 84z" />
    <glyph glyph-name="ampersand" unicode="&#x26;" horiz-adv-x="708"
d="M437 125c-41 -37 -87 -56 -139 -56c-69 0 -125 57 -125 128c0 55 25 83 122 147zM411 561c0 -26 -13 -47 -39 -63l-51 -33l-38 58c-9 13 -13 26 -13 40c0 39 29 68 68 68s73 -32 73 -70zM517 0h105l-77 119l24 45l42 95l-80 35l-40 -91l-123 188c103 64 131 99 131 171
c0 86 -71 155 -160 155s-156 -68 -156 -155c0 -42 12 -70 65 -146c-121 -80 -162 -135 -162 -221c0 -118 95 -213 212 -213c69 0 132 23 187 69zM517 -21c-3 0 -13 2 -17 10l-21 31c-59 -41 -115 -59 -181 -59c-129 0 -233 104 -233 234c0 87 45 154 153 227
c-43 68 -56 92 -56 140c0 100 76 176 177 176c50 0 93 -17 127 -51c36 -35 54 -76 54 -125c0 -80 -36 -119 -123 -178l90 -137l25 56c3 9 7 10 19 12c3 0 6 0 9 -2l79 -35c8 -3 11 -7 11 -28l-60 -131l70 -108c3 -4 4 -8 4 -12c0 -11 -10 -20 -22 -20h-105zM298 90
c40 0 77 13 111 39l-120 186c-73 -48 -95 -75 -95 -118c0 -59 47 -107 104 -107zM390 561c0 26 -24 49 -52 49c-27 0 -47 -20 -47 -47c0 -10 3 -19 9 -28l27 -42l33 22c20 13 30 28 30 46z" />
    <glyph glyph-name="quotesingle" unicode="'" horiz-adv-x="294"
d="M208 735h-122l38 -240c3 -15 11 -23 23 -23s20 8 23 23zM191 492c-6 -29 -18 -41 -44 -41s-38 12 -44 41l-38 239c0 16 4 25 21 25h122c10 2 21 -6 21 -25z" />
    <glyph glyph-name="parenleft" unicode="(" horiz-adv-x="364"
d="M278 -88c-78 134 -105 238 -105 394c0 160 25 251 105 394h-52c-106 -133 -140 -230 -140 -394c0 -165 36 -266 140 -394h52zM226 -109c-25 0 -101 117 -129 197c-23 65 -32 126 -32 218c0 168 34 269 144 407c2 3 11 8 17 8h52c10 0 22 -7 22 -21c0 -4 -1 -7 -3 -11
c-78 -132 -103 -226 -103 -383c0 -154 23 -248 103 -383c2 -4 3 -7 3 -11c0 -14 -12 -21 -22 -21h-52z" />
    <glyph glyph-name="parenright" unicode=")" horiz-adv-x="364"
d="M278 306c0 163 -35 261 -140 394h-52c80 -143 105 -234 105 -394c0 -153 -27 -256 -105 -394h52c104 128 140 229 140 394zM299 306c0 -165 -36 -277 -144 -407c-3 -3 -13 -8 -17 -8h-52c-13 0 -22 8 -22 20c0 4 1 8 3 12c77 136 103 231 103 383c0 157 -25 251 -103 383
c-2 4 -3 8 -3 12c0 12 9 20 22 20h52c31 0 106 -136 129 -198c21 -55 32 -131 32 -217z" />
    <glyph glyph-name="asterisk" unicode="*" horiz-adv-x="509"
d="M388 354l35 62l-98 56l98 57l-35 62l-98 -58v114h-70v-114l-99 58l-35 -62l99 -57l-99 -56l35 -62l99 58v-115h70v115zM407 344c-5 -8 -9 -11 -18 -12c-3 0 -7 2 -11 4l-67 39v-78c0 -10 -10 -21 -21 -21h-70c-12 0 -21 9 -21 21v78l-68 -39c-4 -2 -8 -4 -11 -4
c-7 0 -13 5 -18 12l-35 61c-2 3 -3 7 -3 10c0 7 4 14 11 19l67 38l-67 39c-8 6 -10 11 -11 19c0 3 1 7 3 10l35 61c5 8 8 9 19 11c3 0 7 -1 10 -3l68 -39v77c0 12 9 21 21 21h70c11 0 21 -10 21 -21v-77l67 39c3 2 7 3 10 3c8 0 15 -4 19 -11l35 -61c2 -3 3 -7 3 -10
c0 -8 -4 -15 -11 -19l-67 -39l67 -38c8 -5 9 -8 11 -19c0 -3 -1 -7 -3 -10z" />
    <glyph glyph-name="plus" unicode="+" horiz-adv-x="521"
d="M296 227h140v70h-140v140h-70v-140h-140v-70h140v-140h70v140zM317 206v-119c0 -10 -10 -21 -21 -21h-70c-12 0 -21 9 -21 21v119h-119c-12 0 -21 9 -21 21v70c0 12 9 21 21 21h119v119c0 12 9 21 21 21h70c11 0 21 -10 21 -21v-119h119c11 0 21 -10 21 -21v-70
c0 -10 -10 -21 -21 -21h-119z" />
    <glyph glyph-name="comma" unicode="," horiz-adv-x="294"
d="M208 122h-122l38 -239c3 -15 11 -23 23 -23s20 8 23 23zM191 -121c-6 -28 -19 -40 -44 -40s-38 12 -44 40l-38 240c0 14 3 24 21 24h122c18 1 21 -15 21 -24z" />
    <glyph glyph-name="hyphen" unicode="-" horiz-adv-x="521"
d="M86 227h350v70h-350v-70zM86 206c-12 0 -21 9 -21 21v70c0 12 9 21 21 21h350c11 0 21 -10 21 -21v-70c0 -10 -10 -21 -21 -21h-350z" />
    <glyph glyph-name="period" unicode="." horiz-adv-x="294"
d="M208 61c0 34 -27 61 -61 61c-35 0 -61 -26 -61 -61c0 -36 25 -61 61 -61c35 0 61 26 61 61zM229 61c0 -46 -36 -82 -82 -82c-47 0 -82 35 -82 82s35 82 82 82c46 0 82 -36 82 -82z" />
    <glyph glyph-name="slash" unicode="/" horiz-adv-x="479"
d="M333 691l-269 -740l82 -30l270 740zM166 -86c-4 -10 -11 -13 -27 -13l-82 30c-9 3 -15 11 -15 19l271 748c6 13 9 13 27 13l83 -29c11 -5 13 -13 13 -28z" />
    <glyph glyph-name="zero" unicode="0"
d="M571 350c0 -161 -87 -280 -210 -280c-122 0 -210 120 -210 280s88 280 210 280c121 0 210 -118 210 -280zM659 350c0 202 -123 367 -298 367c-169 0 -297 -159 -297 -367c0 -210 128 -368 297 -368c175 0 298 164 298 368zM680 350c0 -216 -132 -389 -319 -389
c-182 0 -318 167 -318 389c0 223 135 388 318 388s319 -166 319 -388zM550 350c0 149 -79 259 -189 259c-109 0 -189 -111 -189 -259s80 -259 189 -259c110 0 189 110 189 259z" />
    <glyph glyph-name="one" unicode="1"
d="M385 0h87v700h-87l-186 -186l56 -56l130 131v-589zM385 -21c-10 0 -21 10 -21 21v537l-94 -93c-4 -4 -9 -6 -15 -6c-7 0 -11 2 -14 6l-56 56c-4 3 -6 7 -6 14c0 6 2 11 6 15l185 186c2 2 9 6 15 6h87c11 0 21 -10 21 -21v-700c0 -11 -10 -21 -21 -21h-87z" />
    <glyph glyph-name="two" unicode="2"
d="M624 0v87h-412c23 42 72 85 147 129c209 126 265 167 265 288c0 124 -112 213 -263 213c-154 0 -262 -84 -262 -204h87c0 70 68 117 171 117c110 0 179 -49 179 -126c0 -84 -53 -131 -323 -291c-76 -59 -114 -130 -114 -213h525zM99 -21c-11 0 -21 10 -21 21
c0 89 40 165 121 229c271 160 316 202 316 275c0 64 -61 105 -158 105c-90 0 -150 -38 -150 -96c0 -12 -9 -21 -21 -21h-87c-12 0 -21 9 -21 21c0 132 118 225 283 225c73 0 136 -19 191 -57c62 -46 93 -105 93 -177c0 -133 -67 -182 -276 -306c-50 -29 -90 -60 -116 -90
h371c11 0 21 -10 21 -21v-87c0 -10 -11 -21 -21 -21h-525z" />
    <glyph glyph-name="three" unicode="3"
d="M629 210c0 87 -45 148 -136 184c67 28 101 75 101 140c0 112 -96 183 -245 183c-119 0 -209 -48 -235 -126l82 -30c16 46 67 69 153 69c100 0 158 -35 158 -96c0 -64 -64 -97 -210 -97v-87h52c86 0 193 -45 193 -140c0 -86 -77 -140 -193 -140c-91 0 -150 27 -179 82
l-76 -44c44 -79 141 -126 255 -126c166 0 280 93 280 228zM650 210c0 -161 -140 -249 -301 -249c-125 0 -258 72 -276 149c0 7 4 13 11 17l75 44c3 2 7 3 10 3c7 0 16 -5 19 -12c25 -47 79 -71 161 -71c101 0 172 46 172 119c0 68 -79 119 -172 119h-52c-12 0 -21 9 -21 21
v87c0 12 9 21 21 21c128 0 189 25 189 76c0 27 -14 46 -42 59c-24 11 -55 16 -95 16c-77 0 -121 -18 -133 -55c-2 -10 -8 -12 -18 -14l-91 32c-10 6 -14 13 -14 19c0 37 57 95 108 118c45 19 94 29 148 29c74 0 131 -16 177 -45l-1 1c60 -37 90 -91 90 -160
c0 -62 -25 -108 -76 -139c74 -42 111 -104 111 -185z" />
    <glyph glyph-name="four" unicode="4"
d="M466 570v-343h-292zM554 140h87v87h-87v473h-75l-398 -473v-87h385v-140h88v140zM575 119v-119c0 -10 -11 -21 -21 -21h-88c-10 0 -21 10 -21 21v119h-364c-12 0 -21 9 -21 21v94l403 479c4 5 9 8 16 8h75c10 0 21 -11 21 -21v-452h66c12 0 21 -9 21 -21v-87
c0 -12 -9 -21 -21 -21h-66zM220 248h225v265z" />
    <glyph glyph-name="five" unicode="5"
d="M634 245c0 146 -124 262 -280 262c-61 0 -115 -16 -164 -49v154h357v88h-445v-340l83 -32c35 58 101 92 169 92c107 0 193 -78 193 -175s-86 -175 -193 -175c-80 0 -152 45 -179 111l-86 -22c42 -109 149 -177 265 -177c156 0 280 117 280 263zM655 245
c0 -158 -134 -284 -301 -284c-128 0 -239 75 -284 191c0 21 2 24 14 27l86 22c15 0 21 -2 24 -11c25 -60 89 -99 160 -99c93 0 172 68 172 154c0 85 -78 154 -172 154c-63 0 -121 -31 -151 -81c-4 -6 -12 -10 -19 -10l-90 33c-8 3 -13 14 -13 19v340c0 11 11 21 21 21h445
c10 0 21 -11 21 -21v-88c0 -10 -10 -21 -21 -21h-336v-97c43 23 90 34 143 34c168 0 301 -125 301 -283z" />
    <glyph glyph-name="six" unicode="6"
d="M563 246c0 -99 -86 -176 -194 -176c-96 0 -184 84 -184 176c0 101 79 177 184 177c108 0 194 -78 194 -177zM651 247c0 147 -125 263 -282 263c-89 0 -157 -34 -205 -101c19 134 100 221 205 221c61 0 110 -25 147 -76l68 51c-56 75 -128 112 -215 112
c-169 0 -297 -159 -297 -367c0 -210 128 -368 297 -368c156 0 282 118 282 265zM672 247c0 -159 -135 -286 -303 -286c-182 0 -318 167 -318 389c0 223 135 388 318 388c95 0 172 -40 232 -120c3 -5 5 -9 5 -13c0 -6 -3 -11 -9 -16l-69 -52c-4 -3 -8 -4 -12 -4
c-7 0 -12 3 -16 9c-35 45 -78 67 -131 67c-41 0 -122 -18 -163 -127c45 33 99 49 163 49c168 0 303 -127 303 -284zM542 246c0 45 -17 82 -51 112c-36 29 -76 44 -122 44c-93 0 -163 -67 -163 -156c0 -81 80 -155 163 -155c99 0 173 67 173 155z" />
    <glyph glyph-name="seven" unicode="7"
d="M273 0l355 612v88h-472v-88h371l-358 -612h104zM649 606l-358 -617c-3 -6 -13 -10 -18 -10h-104c-13 0 -22 8 -22 19c0 4 1 8 3 12l340 581h-334c-12 0 -21 9 -21 21v88c0 11 10 21 21 21h472c11 0 21 -10 21 -21v-94z" />
    <glyph glyph-name="eight" unicode="8"
d="M554 210c0 -86 -77 -140 -193 -140c-115 0 -192 54 -192 140c0 81 83 140 192 140c86 0 193 -45 193 -140zM519 534c0 -55 -70 -97 -158 -97c-87 0 -157 43 -157 97c0 62 57 96 157 96c101 0 158 -34 158 -96zM641 210c0 87 -45 148 -136 184c67 27 101 74 101 140
c0 117 -103 183 -245 183c-148 0 -245 -72 -245 -183c0 -67 34 -113 102 -140c-91 -36 -137 -97 -137 -184c0 -135 115 -228 280 -228c167 0 280 93 280 228zM662 210c0 -161 -140 -249 -301 -249c-177 0 -301 101 -301 249c0 81 37 143 111 185c-51 31 -76 77 -76 139
c0 69 30 122 90 160c50 30 105 44 176 44c74 0 131 -16 177 -45l-1 1c60 -37 90 -91 90 -160c0 -62 -25 -108 -75 -139c73 -41 110 -103 110 -185zM533 210c0 81 -98 119 -172 119c-95 0 -171 -52 -171 -119c0 -72 68 -119 171 -119c101 0 172 46 172 119zM498 534
c0 27 -14 46 -42 59c-24 11 -55 16 -95 16s-72 -5 -93 -16c-29 -13 -43 -32 -43 -59c0 -42 65 -76 136 -76c64 0 137 31 137 76z" />
    <glyph glyph-name="nine" unicode="9"
d="M538 454c0 -101 -79 -177 -185 -177c-108 0 -194 78 -194 177c0 98 86 176 194 176c96 0 185 -85 185 -176zM651 350c0 202 -123 367 -298 367c-157 0 -281 -116 -281 -264c0 -147 124 -263 281 -263c89 0 158 34 206 101c-23 -137 -101 -221 -206 -221
c-60 0 -109 25 -147 76l-68 -52c57 -75 128 -112 215 -112c170 0 298 158 298 368zM672 350c0 -216 -132 -389 -319 -389c-104 0 -214 67 -236 137c1 5 4 10 9 13l68 52c5 3 9 5 13 5c6 0 11 -3 16 -10c33 -45 76 -67 130 -67c72 0 132 46 163 126c-44 -32 -98 -48 -163 -48
c-170 0 -302 125 -302 284c0 160 132 285 302 285c183 0 319 -166 319 -388zM517 454c0 80 -81 155 -164 155c-97 0 -173 -68 -173 -155c0 -44 17 -81 52 -111c34 -30 75 -45 121 -45s85 15 117 45l-1 -1c32 31 48 68 48 112z" />
    <glyph glyph-name="colon" unicode=":" horiz-adv-x="294"
d="M208 61c0 34 -27 61 -61 61c-35 0 -61 -26 -61 -61c0 -36 25 -61 61 -61c35 0 61 26 61 61zM208 376c0 34 -27 61 -61 61c-35 0 -61 -26 -61 -61c0 -36 25 -61 61 -61c35 0 61 26 61 61zM229 376c0 -46 -36 -82 -82 -82c-47 0 -82 35 -82 82s35 82 82 82
c46 0 82 -36 82 -82zM229 61c0 -46 -36 -82 -82 -82c-47 0 -82 35 -82 82s35 82 82 82c46 0 82 -36 82 -82z" />
    <glyph glyph-name="semicolon" unicode=";" horiz-adv-x="294"
d="M208 122h-122l38 -239c3 -15 11 -23 23 -23s20 8 23 23zM208 376c0 34 -27 61 -61 61c-35 0 -61 -26 -61 -61c0 -36 25 -61 61 -61c35 0 61 26 61 61zM191 -121c-6 -28 -19 -40 -44 -40s-38 12 -44 40l-38 240c0 14 3 24 21 24h122c18 1 21 -15 21 -24zM229 376
c0 -46 -36 -82 -82 -82c-47 0 -82 35 -82 82s35 82 82 82c46 0 82 -36 82 -82z" />
    <glyph glyph-name="less" unicode="&#x3c;" horiz-adv-x="503"
d="M379 37l38 58l-257 167l257 168l-38 58l-293 -191v-70zM396 25c-4 -6 -9 -8 -18 -10c-3 0 -7 2 -11 4l-293 191c-7 5 -9 14 -9 17v70c0 6 5 16 9 18l293 191c4 2 8 4 11 4c7 0 14 -4 18 -10l39 -59c2 -4 4 -8 4 -11c0 -7 -4 -14 -10 -18l-230 -150l230 -149
c6 -4 8 -9 10 -18c0 -3 -2 -7 -4 -11z" />
    <glyph glyph-name="equal" unicode="=" horiz-adv-x="521"
d="M86 149h350v70h-350v-70zM86 306h350v70h-350v-70zM86 285c-12 0 -21 9 -21 21v70c0 12 9 21 21 21h350c11 0 21 -10 21 -21v-70c0 -10 -10 -21 -21 -21h-350zM86 128c-12 0 -21 9 -21 21v70c0 11 10 21 21 21h350c10 0 21 -11 21 -21v-70c0 -11 -10 -21 -21 -21h-350z
" />
    <glyph glyph-name="greater" unicode="&#x3e;" horiz-adv-x="503"
d="M124 37l293 190v70l-293 191l-38 -58l257 -168l-257 -167zM136 19c-4 -2 -8 -4 -11 -4c-7 0 -14 4 -18 10l-39 59c-2 4 -4 8 -4 11c0 7 4 14 10 18l230 149l-230 150c-6 4 -8 9 -10 18c0 3 2 7 4 11l39 59c4 6 9 8 18 10c3 0 7 -2 11 -4l293 -191c4 -2 9 -12 9 -18v-70
c0 -3 -2 -12 -9 -17z" />
    <glyph glyph-name="question" unicode="?" horiz-adv-x="486"
d="M243 61c0 34 -27 61 -61 61c-35 0 -61 -26 -61 -61c0 -36 25 -61 61 -61c35 0 61 26 61 61zM401 556c0 88 -72 161 -158 161c-88 0 -157 -71 -157 -161h87c1 40 33 74 70 74c40 0 70 -36 70 -74c0 -46 -10 -55 -123 -151c-29 -29 -44 -64 -44 -105c0 -6 0 -10 10 -108h52
c3 20 4 37 5 52c10 105 15 109 146 196c28 25 42 63 42 116zM422 556c0 -57 -16 -101 -49 -132l-85 -56c-28 -21 -45 -52 -50 -91l-4 -36c-3 -61 -6 -70 -26 -70h-52c-21 0 -25 17 -31 129c0 77 15 90 131 187l-1 -1c25 21 37 44 37 70c0 28 -23 53 -49 53s-48 -24 -49 -54
c0 -12 -8 -20 -21 -20h-87c-12 0 -21 9 -21 21c0 101 79 182 178 182c97 0 179 -83 179 -182zM264 61c0 -46 -36 -82 -82 -82c-47 0 -82 35 -82 82s35 82 82 82c46 0 82 -36 82 -82z" />
    <glyph glyph-name="at" unicode="@" horiz-adv-x="1081"
d="M656 275c0 -85 -72 -157 -157 -157c-74 0 -132 58 -132 132c0 85 72 157 157 157c73 0 132 -57 132 -132zM996 262c0 253 -202 455 -455 455c-254 0 -455 -201 -455 -455c0 -253 202 -455 455 -455c40 0 83 7 128 20l-15 58c-35 -11 -72 -16 -113 -16
c-219 0 -394 175 -394 393c0 219 175 394 394 394c220 0 393 -174 393 -394c0 -111 -68 -201 -154 -201c-43 0 -68 34 -68 93l26 305h-65l-6 -71c-34 56 -84 84 -151 84c-116 0 -215 -105 -215 -229c0 -109 76 -191 178 -191c67 0 123 28 166 84c0 -77 56 -136 129 -136
c122 0 222 121 222 262zM1017 262c0 -146 -103 -283 -243 -283c-67 0 -124 43 -144 109c-41 -38 -92 -57 -151 -57c-114 0 -199 91 -199 212c0 136 108 250 236 250c53 0 98 -17 134 -51l2 19c1 13 8 19 21 19h65c13 0 21 -8 21 -22l-26 -307c0 -46 19 -69 47 -69
c90 0 133 103 133 180c0 208 -164 373 -372 373c-207 0 -373 -166 -373 -373c0 -206 166 -372 373 -372c35 0 71 5 106 15c20 0 22 -2 27 -14l15 -59c0 -31 -49 -46 -148 -46c-265 0 -476 211 -476 476s211 476 476 476c264 0 476 -212 476 -476zM635 275
c0 62 -49 111 -111 111c-73 0 -136 -63 -136 -136c0 -65 46 -111 111 -111c74 0 136 62 136 136z" />
    <glyph glyph-name="A" unicode="A" horiz-adv-x="687"
d="M343 572l119 -327h-238zM551 0h94l-255 700h-93l-255 -700h93l57 157h301zM551 -21c-7 0 -17 7 -20 14l-52 143h-272l-52 -143c-3 -7 -13 -14 -20 -14h-93c-11 0 -20 2 -20 28l254 700c2 6 12 14 21 14h93c7 0 17 -7 20 -14l255 -700c0 -23 -5 -28 -20 -28h-94zM343 510
l-89 -244h177z" />
    <glyph glyph-name="B" unicode="B" horiz-adv-x="696"
d="M532 197c0 -62 -57 -110 -131 -110h-228v219h228c73 0 131 -48 131 -109zM514 503c0 -61 -58 -109 -131 -109h-210v218h210c75 0 131 -47 131 -109zM619 197c0 78 -41 130 -123 156c71 29 106 79 106 150c0 111 -96 197 -219 197h-297v-700h315c122 0 218 85 218 197z
M640 197c0 -122 -105 -218 -239 -218h-315c-11 0 -21 10 -21 21v700c0 11 10 21 21 21h297c133 0 240 -96 240 -218c0 -65 -26 -114 -77 -147c63 -33 94 -86 94 -159zM511 197c0 50 -48 88 -110 88h-207v-177h207c61 0 110 39 110 89zM493 503c0 50 -48 88 -110 88h-189
v-176h189c62 0 110 39 110 88z" />
    <glyph glyph-name="C" unicode="C" horiz-adv-x="768"
d="M628 150c-55 -53 -121 -80 -197 -80c-155 0 -280 125 -280 280s125 280 280 280c77 0 143 -27 197 -81l63 61c-71 71 -158 107 -260 107c-204 0 -367 -163 -367 -367c0 -205 163 -368 367 -368c101 0 188 36 260 108zM706 105v-30c-76 -76 -168 -114 -275 -114
c-215 0 -388 173 -388 389c0 215 173 388 388 388c108 0 200 -38 275 -113c5 -5 7 -10 7 -16c0 -5 -2 -10 -7 -14l-63 -60c-4 -4 -9 -6 -15 -6s-11 2 -15 6c-51 49 -112 74 -182 74c-144 0 -259 -115 -259 -259s115 -259 259 -259c70 0 131 25 182 74c4 4 9 6 15 6
s11 -2 15 -6z" />
    <glyph glyph-name="D" unicode="D" horiz-adv-x="775"
d="M611 350c0 -146 -117 -263 -263 -263h-175v525h175c146 0 263 -116 263 -262zM698 350c0 194 -156 350 -350 350h-262v-700h262c195 0 350 155 350 350zM719 350c0 -207 -164 -371 -371 -371h-262c-11 0 -21 10 -21 21v700c0 11 10 21 21 21h262c206 0 371 -165 371 -371
zM590 350c0 134 -107 241 -242 241h-154v-483h154c134 0 242 108 242 242z" />
    <glyph glyph-name="E" unicode="E" horiz-adv-x="661"
d="M86 0h490v87h-403v219h315v88h-315v218h403v88h-490v-700zM86 -21c-11 0 -21 10 -21 21v700c0 11 10 21 21 21h490c10 0 21 -11 21 -21v-88c0 -10 -10 -21 -21 -21h-382v-176h294c11 0 21 -10 21 -21v-88c0 -12 -9 -21 -21 -21h-294v-177h382c11 0 21 -10 21 -21v-87
c0 -10 -11 -21 -21 -21h-490z" />
    <glyph glyph-name="F" unicode="F" horiz-adv-x="631"
d="M173 612h403v88h-490v-700h87v306h315v88h-315v218zM194 591v-176h294c11 0 21 -10 21 -21v-88c0 -12 -9 -21 -21 -21h-294v-285c0 -11 -10 -21 -21 -21h-87c-11 0 -21 10 -21 21v700c0 11 10 21 21 21h490c10 0 21 -11 21 -21v-88c0 -10 -10 -21 -21 -21h-382z" />
    <glyph glyph-name="G" unicode="G" horiz-adv-x="815"
d="M738 394h-307v-88h220v-130c-56 -71 -129 -106 -220 -106c-155 0 -280 125 -280 280s125 280 280 280c90 0 173 -42 224 -112l72 50c-43 60 -140 149 -296 149c-204 0 -367 -163 -367 -367c0 -205 163 -368 367 -368c126 0 238 61 307 166v246zM759 148
c-15 -60 -132 -149 -233 -175c-31 -8 -63 -12 -95 -12c-215 0 -388 173 -388 389c0 215 173 388 388 388c151 1 317 -113 317 -172c0 -8 -2 -12 -9 -16l-71 -50c-3 -2 -7 -4 -11 -4c-7 0 -14 4 -18 10c-50 64 -128 103 -208 103c-144 0 -259 -115 -259 -259
s115 -259 259 -259c81 0 147 31 199 93v101h-199c-12 0 -21 9 -21 21v88c0 11 11 21 21 21h307c11 0 21 -10 21 -21v-246z" />
    <glyph glyph-name="H" unicode="H" horiz-adv-x="731"
d="M558 0h88v700h-88v-306h-385v306h-87v-700h87v306h385v-306zM558 -21c-10 0 -21 10 -21 21v285h-343v-285c0 -11 -10 -21 -21 -21h-87c-11 0 -21 10 -21 21v700c0 11 10 21 21 21h87c11 0 21 -10 21 -21v-285h343v285c0 11 11 21 21 21h88c10 0 21 -11 21 -21v-700
c0 -10 -11 -21 -21 -21h-88z" />
    <glyph glyph-name="I" unicode="I" horiz-adv-x="259"
d="M86 0h87v700h-87v-700zM86 -21c-11 0 -21 10 -21 21v700c0 11 10 21 21 21h87c11 0 21 -10 21 -21v-700c0 -11 -10 -21 -21 -21h-87z" />
    <glyph glyph-name="J" unicode="J" horiz-adv-x="572"
d="M495 700h-265v-88h178v-393c0 -82 -67 -149 -149 -149c-55 0 -97 23 -126 70l-78 -41c44 -74 119 -117 204 -117c130 0 236 106 236 237v481zM516 219c0 -144 -116 -258 -257 -258c-104 -1 -226 90 -226 138c0 8 5 14 12 18l78 41c3 2 7 3 10 3c7 0 13 -4 17 -10
c25 -40 61 -60 109 -60c71 0 128 57 128 128v372h-157c-12 0 -21 9 -21 21v88c0 11 11 21 21 21h265c11 0 21 -10 21 -21v-481z" />
    <glyph glyph-name="K" unicode="K" horiz-adv-x="657"
d="M507 0h104l-276 424l276 276h-124l-314 -314v314h-87v-700h87v262l99 99zM507 -21c-7 0 -15 4 -18 10l-220 339l-75 -74v-254c0 -11 -10 -21 -21 -21h-87c-11 0 -21 10 -21 21v700c0 11 10 21 21 21h87c11 0 21 -10 21 -21v-263l278 278c3 3 11 6 15 6h124
c15 0 22 -12 22 -21c0 -5 -2 -10 -7 -15l-265 -264l267 -410c3 -4 5 -8 5 -12c0 -10 -10 -20 -22 -20h-104z" />
    <glyph glyph-name="L" unicode="L" horiz-adv-x="543"
d="M86 0h402v87h-315v613h-87v-700zM86 -21c-11 0 -21 10 -21 21v700c0 11 10 21 21 21h87c11 0 21 -10 21 -21v-592h294c12 0 21 -9 21 -21v-87c0 -11 -10 -21 -21 -21h-402z" />
    <glyph glyph-name="M" unicode="M" horiz-adv-x="868"
d="M695 0h87v700h-140l-208 -572l-208 572h-140v-700h87v590l215 -590h93l214 587v-587zM695 -21c-11 0 -21 10 -21 21v466l-173 -473c-3 -7 -13 -14 -20 -14h-93c-9 0 -19 8 -21 14l-173 476v-469c0 -11 -10 -21 -21 -21h-87c-11 0 -21 10 -21 21v700c0 11 10 21 21 21h140
c7 0 17 -7 20 -14l188 -517l188 517c3 7 13 14 20 14h140c11 0 21 -10 21 -21v-700c0 -11 -10 -21 -21 -21h-87z" />
    <glyph glyph-name="N" unicode="N" horiz-adv-x="731"
d="M558 0h88v700h-88v-543l-385 543h-87v-700h87v542zM558 -21c-5 0 -14 4 -17 9l-347 488v-476c0 -11 -10 -21 -21 -21h-87c-11 0 -21 10 -21 21v700c0 11 10 21 21 21h87c4 0 15 -4 18 -9l346 -488v476c0 11 11 21 21 21h88c10 0 21 -11 21 -21v-700
c0 -10 -11 -21 -21 -21h-88z" />
    <glyph glyph-name="O" unicode="O" horiz-adv-x="863"
d="M711 350c0 -156 -124 -280 -280 -280c-155 0 -280 125 -280 280s125 280 280 280c156 0 280 -124 280 -280zM799 350c0 205 -162 367 -368 367s-367 -162 -367 -367c0 -203 161 -368 367 -368c204 0 368 164 368 368zM820 350c0 -217 -172 -389 -389 -389
c-214 0 -388 171 -388 389c0 217 171 388 388 388s389 -171 389 -388zM690 350c0 144 -115 259 -259 259s-259 -115 -259 -259s115 -259 259 -259s259 115 259 259z" />
    <glyph glyph-name="P" unicode="P" horiz-adv-x="657"
d="M514 503c0 -61 -58 -109 -131 -109h-210v218h210c75 0 131 -47 131 -109zM602 503c0 111 -96 197 -219 197h-297v-700h87v306h210c122 0 219 87 219 197zM623 503c0 -124 -111 -218 -240 -218h-189v-285c0 -11 -10 -21 -21 -21h-87c-11 0 -21 10 -21 21v700
c0 11 10 21 21 21h297c133 0 240 -96 240 -218zM493 503c0 50 -48 88 -110 88h-189v-176h189c62 0 110 39 110 88z" />
    <glyph glyph-name="Q" unicode="Q" horiz-adv-x="863"
d="M711 350c0 -139 -99 -256 -236 -277v102h-87v-102c-137 22 -237 139 -237 277c0 155 125 280 280 280c156 0 280 -124 280 -280zM799 350c0 205 -162 367 -368 367s-367 -162 -367 -367c0 -187 137 -342 324 -365v-160h87v160c186 23 324 178 324 365zM820 350
c0 -191 -135 -351 -324 -383v-142c0 -10 -11 -21 -21 -21h-87c-11 0 -21 10 -21 21v142c-189 32 -324 192 -324 383c0 217 171 388 388 388s389 -171 389 -388zM690 350c0 144 -115 259 -259 259s-259 -115 -259 -259c0 -120 78 -221 195 -251v76c0 11 10 21 21 21h87
c10 0 21 -11 21 -21v-76c114 29 194 132 194 251z" />
    <glyph glyph-name="R" unicode="R" horiz-adv-x="692"
d="M514 503c0 -61 -58 -109 -131 -109h-210v218h210c75 0 131 -47 131 -109zM568 0h104l-159 245c-29 45 -52 68 -69 69c95 25 158 100 158 189c0 111 -96 197 -219 197h-297v-700h87v306h105c61 0 104 -20 131 -61zM568 -21c-5 0 -15 4 -18 10l-159 245
c-21 34 -59 51 -113 51h-84v-285c0 -11 -10 -21 -21 -21h-87c-11 0 -21 10 -21 21v700c0 11 10 21 21 21h297c133 0 240 -96 240 -218c0 -85 -51 -158 -132 -195c10 -11 33 -43 39 -52l159 -245c3 -4 5 -8 5 -12c0 -10 -10 -20 -22 -20h-104zM493 503c0 50 -48 88 -110 88
h-189v-176h189c62 0 110 39 110 88z" />
    <glyph glyph-name="S" unicode="S" horiz-adv-x="714"
d="M637 189c0 83 -39 139 -118 169l-219 45c-79 19 -118 55 -118 110c0 69 72 117 175 117c102 0 175 -47 175 -117h87c0 116 -112 204 -262 204c-149 0 -263 -88 -263 -204c0 -85 40 -143 119 -173l218 -44c79 -18 118 -54 118 -107c0 -73 -75 -119 -192 -119
s-193 46 -193 119h-87c0 -119 119 -207 280 -207c160 0 280 87 280 207zM658 189c0 -132 -128 -228 -301 -228c-172 0 -301 98 -301 228c0 11 11 21 21 21h87c11 0 21 -10 21 -21c0 -61 68 -98 172 -98c105 0 171 38 171 98c0 43 -34 72 -101 87l1 -1
c-82 15 -137 26 -221 45c-89 34 -134 98 -134 193c0 129 125 225 284 225s283 -96 283 -225c0 -12 -9 -21 -21 -21h-87c-12 0 -21 9 -21 21c0 58 -66 96 -154 96c-91 0 -154 -39 -154 -96c0 -65 46 -87 317 -134c92 -35 138 -99 138 -190z" />
    <glyph glyph-name="T" unicode="T" horiz-adv-x="644"
d="M366 612h227v88h-542v-88h227v-612h88v612zM387 591v-591c0 -10 -11 -21 -21 -21h-88c-10 0 -21 10 -21 21v591h-206c-12 0 -21 9 -21 21v88c0 11 10 21 21 21h542c11 0 21 -10 21 -21v-88c0 -12 -9 -21 -21 -21h-206z" />
    <glyph glyph-name="U" unicode="U" horiz-adv-x="714"
d="M637 700h-88v-438c0 -107 -85 -192 -192 -192c-109 0 -193 85 -193 192v438h-87v-438c0 -155 125 -280 280 -280s280 125 280 280v438zM658 262c0 -167 -134 -301 -301 -301s-301 134 -301 301v438c0 11 11 21 21 21h87c11 0 21 -10 21 -21v-438c0 -95 76 -171 172 -171
c95 0 171 76 171 171v438c0 11 11 21 21 21h88c10 0 21 -11 21 -21v-438z" />
    <glyph glyph-name="V" unicode="V" horiz-adv-x="687"
d="M390 0l255 700h-94l-208 -572l-208 572h-93l255 -700h93zM410 -7c-3 -7 -13 -14 -20 -14h-93c-9 0 -19 8 -21 14l-254 700c0 23 5 28 20 28h93c7 0 17 -7 20 -14l188 -517l188 517c3 7 13 14 20 14h94c20 -1 20 -12 20 -28z" />
    <glyph glyph-name="W" unicode="W" horiz-adv-x="978"
d="M735 0l201 700h-91l-156 -542l-154 542h-91l-156 -542l-155 542h-91l200 -700h91l156 542l155 -542h91zM755 -6c-3 -8 -13 -15 -20 -15h-91c-8 0 -17 7 -20 15l-135 471l-136 -471c-2 -8 -12 -15 -20 -15h-91c-7 0 -17 7 -20 15l-200 700c0 23 5 27 20 27h91
c8 0 18 -7 20 -15l135 -472l135 472c2 8 12 15 21 15h91c7 0 17 -7 20 -15l134 -472l136 472c3 8 12 15 20 15h91c16 -1 20 -9 20 -27z" />
    <glyph glyph-name="X" unicode="X" horiz-adv-x="695"
d="M540 0h108l-246 350l246 350h-108l-193 -273l-192 273h-109l247 -350l-247 -350h109l192 273zM540 -21c-4 0 -15 4 -18 9l-175 247l-175 -247c-2 -4 -12 -9 -17 -9h-109c-13 0 -22 8 -22 19c0 5 2 9 5 14l238 338l-238 338c-3 5 -5 9 -5 14c0 11 9 19 22 19h109
c5 0 15 -5 17 -9l175 -248l175 248c3 5 14 9 18 9h108c13 0 23 -9 23 -20c0 -5 -2 -9 -5 -13l-238 -338l238 -338c3 -4 5 -8 5 -13c0 -11 -10 -20 -23 -20h-108z" />
    <glyph glyph-name="Y" unicode="Y" horiz-adv-x="686"
d="M387 335l257 365h-109l-192 -273l-193 273h-108l257 -365v-335h88v335zM408 327v-327c0 -10 -11 -21 -21 -21h-88c-10 0 -21 10 -21 21v327l-254 361c-3 4 -5 8 -5 13c0 11 10 20 23 20h108c9 0 15 -3 18 -9l175 -248l175 248c2 5 11 9 17 9h109c12 0 22 -9 22 -20
c0 -5 -2 -9 -5 -13z" />
    <glyph glyph-name="Z" unicode="Z" horiz-adv-x="714"
d="M77 0h560v87h-441l441 525v88h-560v-88h441l-441 -525v-87zM77 -21c-10 0 -21 10 -21 21v94l417 497h-396c-12 0 -21 9 -21 21v88c0 11 11 21 21 21h560c10 0 21 -11 21 -21v-95l-417 -497h396c11 0 21 -10 21 -21v-87c0 -10 -11 -21 -21 -21h-560z" />
    <glyph glyph-name="bracketleft" unicode="[" horiz-adv-x="381"
d="M86 -88h210v88h-123v612h123v88h-210v-788zM86 -109c-11 0 -21 10 -21 21v788c0 11 10 21 21 21h210c10 0 21 -11 21 -21v-88c0 -10 -10 -21 -21 -21h-102v-570h102c10 0 21 -11 21 -21v-88c0 -10 -11 -21 -21 -21h-210z" />
    <glyph glyph-name="backslash" unicode="\" horiz-adv-x="479"
d="M146 691l-82 -30l269 -740l83 30zM340 -99c-18 0 -22 2 -27 13l-271 748c0 8 6 15 15 20l82 29c18 0 22 0 27 -13l270 -740c0 -19 -4 -23 -13 -27z" />
    <glyph glyph-name="bracketright" unicode="]" horiz-adv-x="381"
d="M86 -88h210v788h-210v-88h122v-612h-122v-88zM86 -109c-11 0 -21 10 -21 21v88c0 11 10 21 21 21h101v570h-101c-12 0 -21 9 -21 21v88c0 11 10 21 21 21h210c10 0 21 -11 21 -21v-788c0 -10 -11 -21 -21 -21h-210z" />
    <glyph glyph-name="asciicircum" unicode="^" horiz-adv-x="527"
d="M377 299l64 29l-143 319h-70l-142 -319l64 -29l113 255zM386 280c-22 0 -25 2 -28 10l-95 212l-94 -212c-4 -8 -7 -10 -28 -10l-64 29c-11 4 -11 8 -11 28l143 319c2 6 12 12 19 12h70c7 0 18 -7 20 -12l142 -319c2 -3 2 -6 2 -9c0 -9 -4 -16 -12 -19z" />
    <glyph glyph-name="underscore" unicode="_" horiz-adv-x="436"
d="M436 0h-436v70h436v-70z" />
    <glyph glyph-name="grave" unicode="`" horiz-adv-x="311"
d="M173 595h53l-53 105h-87zM173 574c-6 0 -13 4 -16 8l-87 105c-4 5 -6 9 -6 14c0 12 9 20 22 20h87c4 0 16 -3 19 -11l52 -105c2 -4 3 -7 3 -11c0 -11 -9 -20 -21 -20h-53z" />
    <glyph glyph-name="a" unicode="a" horiz-adv-x="622"
d="M311 515l107 -295h-214zM498 0h85l-230 630h-84l-229 -630h83l52 142h271zM498 -21c-7 0 -17 7 -20 14l-47 128h-241l-47 -128c-3 -7 -13 -14 -20 -14h-83c-11 0 -20 2 -20 28l228 630c2 6 12 14 21 14h84c7 0 19 -8 21 -14l229 -630c0 -21 -5 -28 -20 -28h-85zM311 453
l-77 -212h154z" />
    <glyph glyph-name="b" unicode="b" horiz-adv-x="631"
d="M481 177c0 -55 -52 -98 -118 -98h-205v197h205c65 0 118 -44 118 -99zM465 452c0 -54 -53 -98 -118 -98h-189v197h189c66 0 118 -42 118 -99zM560 177c0 71 -37 118 -111 141c63 26 95 71 95 134c0 101 -88 178 -197 178h-267v-630h283c108 0 197 78 197 177zM581 177
c0 -58 -23 -106 -68 -143c-43 -37 -93 -55 -150 -55h-283c-11 0 -21 10 -21 21v630c0 11 10 21 21 21h267c121 0 218 -89 218 -199c0 -57 -22 -101 -67 -132c55 -31 83 -79 83 -143zM460 177c0 53 -55 78 -97 78h-184v-155h184c53 0 97 34 97 77zM444 452
c0 53 -55 78 -97 78h-168v-155h168c53 0 97 34 97 77z" />
    <glyph glyph-name="c" unicode="c" horiz-adv-x="696"
d="M568 136c-49 -49 -108 -73 -178 -73c-139 0 -252 113 -252 252s113 252 252 252c69 0 129 -24 178 -73l56 55c-65 65 -143 97 -234 97c-182 0 -331 -149 -331 -331c0 -183 148 -331 331 -331c91 0 169 32 234 97zM639 96v-30c-69 -69 -152 -103 -249 -103
c-196 0 -352 159 -352 352c0 196 156 352 352 352c98 0 181 -35 249 -104c4 -4 6 -9 6 -15c0 -5 -2 -10 -6 -14l-56 -55c-5 -3 -10 -5 -15 -5s-10 2 -15 5c-45 45 -100 67 -163 67c-128 0 -231 -103 -231 -231s103 -231 231 -231c63 0 117 22 163 66c4 4 9 6 15 6
s11 -2 15 -6z" />
    <glyph glyph-name="d" unicode="d" horiz-adv-x="702"
d="M552 315c0 -131 -105 -236 -236 -236h-158v472h158c131 0 236 -105 236 -236zM631 315c0 173 -142 315 -315 315h-236v-630h236c173 0 315 142 315 315zM652 315c0 -186 -150 -336 -336 -336h-236c-11 0 -21 10 -21 21v630c0 11 10 21 21 21h236c186 0 336 -151 336 -336
zM531 315c0 118 -97 215 -215 215h-137v-430h137c118 0 215 97 215 215z" />
    <glyph glyph-name="e" unicode="e" horiz-adv-x="599"
d="M80 0h441v79h-363v197h284v78h-284v197h363v79h-441v-630zM80 -21c-11 0 -21 10 -21 21v630c0 11 10 21 21 21h441c10 0 21 -11 21 -21v-79c0 -10 -10 -21 -21 -21h-342v-155h263c11 0 21 -10 21 -21v-78c0 -11 -10 -21 -21 -21h-263v-155h342c10 0 21 -11 21 -21v-79
c0 -10 -11 -21 -21 -21h-441z" />
    <glyph glyph-name="f" unicode="f" horiz-adv-x="572"
d="M158 551h363v79h-441v-630h78v276h284v78h-284v197zM179 530v-155h263c11 0 21 -10 21 -21v-78c0 -11 -10 -21 -21 -21h-263v-255c0 -11 -10 -21 -21 -21h-78c-11 0 -21 10 -21 21v630c0 11 10 21 21 21h441c10 0 21 -11 21 -21v-79c0 -10 -10 -21 -21 -21h-342z" />
    <glyph glyph-name="g" unicode="g" horiz-adv-x="738"
d="M667 354h-277v-78h198v-118c-51 -63 -117 -95 -198 -95c-139 0 -252 113 -252 252s113 252 252 252c80 0 155 -38 201 -101l65 45c-63 84 -161 135 -266 135c-182 0 -331 -149 -331 -331c0 -183 148 -331 331 -331c112 0 215 56 277 149v221zM688 133
c-32 -88 -173 -170 -298 -170c-196 0 -352 159 -352 352c0 196 156 352 352 352c125 0 264 -86 287 -157c0 -7 -3 -13 -9 -17l-64 -44c-4 -3 -8 -4 -13 -4c-6 0 -12 3 -16 9c-42 58 -112 92 -185 92c-128 0 -231 -103 -231 -231s103 -231 231 -231c72 0 131 27 177 81v90
h-177c-12 0 -21 9 -21 21v78c0 12 9 21 21 21h277c11 0 21 -10 21 -21v-221z" />
    <glyph glyph-name="h" unicode="h" horiz-adv-x="662"
d="M505 0h79v630h-79v-276h-347v276h-78v-630h78v276h347v-276zM505 -21c-11 0 -21 10 -21 21v255h-305v-255c0 -11 -10 -21 -21 -21h-78c-11 0 -21 10 -21 21v630c0 11 10 21 21 21h78c11 0 21 -10 21 -21v-255h305v255c0 11 10 21 21 21h79c10 0 21 -11 21 -21v-630
c0 -10 -11 -21 -21 -21h-79z" />
    <glyph glyph-name="i" unicode="i" horiz-adv-x="237"
d="M80 0h78v630h-78v-630zM80 -21c-11 0 -21 10 -21 21v630c0 11 10 21 21 21h78c11 0 21 -10 21 -21v-630c0 -11 -10 -21 -21 -21h-78z" />
    <glyph glyph-name="j" unicode="j" horiz-adv-x="519"
d="M448 630h-239v-79h160v-354c0 -75 -59 -134 -134 -134c-49 0 -87 21 -113 63l-70 -37c38 -66 107 -105 183 -105c118 0 213 95 213 213v433zM469 197c0 -129 -105 -234 -234 -234c-96 0 -205 78 -205 126c0 7 4 14 12 19l80 39c6 0 14 -4 17 -10c21 -35 53 -53 96 -53
c63 0 113 50 113 113v333h-139c-12 0 -21 9 -21 21v79c0 11 11 21 21 21h239c10 0 21 -11 21 -21v-433z" />
    <glyph glyph-name="k" unicode="k" horiz-adv-x="596"
d="M458 0h94l-248 381l248 249h-111l-283 -283v283h-78v-630h78v236l89 89zM458 -21c-7 0 -15 4 -18 10l-197 303l-64 -65v-227c0 -11 -10 -21 -21 -21h-78c-11 0 -21 10 -21 21v630c0 11 10 21 21 21h78c11 0 21 -10 21 -21v-232l247 247c2 2 9 6 15 6h111
c15 0 22 -12 22 -21c0 -5 -2 -10 -7 -15l-237 -237l240 -367c3 -4 4 -8 4 -12c0 -11 -10 -20 -22 -20h-94z" />
    <glyph glyph-name="l" unicode="l" horiz-adv-x="493"
d="M80 0h362v79h-284v551h-78v-630zM80 -21c-11 0 -21 10 -21 21v630c0 11 10 21 21 21h78c11 0 21 -10 21 -21v-530h263c10 0 21 -11 21 -21v-79c0 -10 -11 -21 -21 -21h-362z" />
    <glyph glyph-name="m" unicode="m" horiz-adv-x="786"
d="M627 0h79v630h-126l-187 -515l-187 515h-126v-630h78v531l193 -531h84l192 528v-528zM627 -21c-10 0 -21 10 -21 21v409l-151 -416c-3 -7 -13 -14 -20 -14h-84c-7 0 -17 7 -20 14l-152 417v-410c0 -11 -10 -21 -21 -21h-78c-11 0 -21 10 -21 21v630c0 11 10 21 21 21h126
c5 0 18 -9 20 -14l167 -460l167 460c3 7 13 14 20 14h126c10 0 21 -11 21 -21v-630c0 -10 -11 -21 -21 -21h-79z" />
    <glyph glyph-name="n" unicode="n" horiz-adv-x="662"
d="M505 0h79v630h-79v-488l-347 488h-78v-630h78v488zM505 -21c-4 0 -15 4 -18 9l-308 434v-422c0 -11 -10 -21 -21 -21h-78c-11 0 -21 10 -21 21v630c0 11 10 21 21 21h78c9 0 15 -3 18 -9l308 -434v422c0 11 10 21 21 21h79c10 0 21 -11 21 -21v-630
c0 -10 -11 -21 -21 -21h-79z" />
    <glyph glyph-name="o" unicode="o" horiz-adv-x="780"
d="M642 315c0 -140 -112 -252 -252 -252c-139 0 -252 113 -252 252s113 252 252 252c140 0 252 -112 252 -252zM721 315c0 184 -147 331 -331 331c-183 0 -331 -148 -331 -331c0 -184 147 -331 331 -331c185 0 331 146 331 331zM742 315c0 -197 -155 -352 -352 -352
c-195 0 -352 157 -352 352c0 194 158 352 352 352c195 0 352 -157 352 -352zM621 315c0 128 -103 231 -231 231s-231 -103 -231 -231s103 -231 231 -231s231 103 231 231z" />
    <glyph glyph-name="p" unicode="p" horiz-adv-x="596"
d="M465 452c0 -54 -53 -98 -118 -98h-189v197h189c66 0 118 -42 118 -99zM544 452c0 101 -88 178 -197 178h-267v-630h78v276h189c86 0 197 56 197 176zM565 452c0 -58 -23 -105 -68 -142c-43 -37 -93 -55 -150 -55h-168v-255c0 -11 -10 -21 -21 -21h-78
c-11 0 -21 10 -21 21v630c0 11 10 21 21 21h267c121 0 218 -89 218 -199zM444 452c0 53 -55 78 -97 78h-168v-155h168c53 0 97 34 97 77z" />
    <glyph glyph-name="q" unicode="q" horiz-adv-x="780"
d="M642 315c0 -125 -90 -231 -212 -249v91h-79v-91c-121 17 -213 124 -213 249c0 139 113 252 252 252c140 0 252 -112 252 -252zM721 315c0 184 -147 331 -331 331c-183 0 -331 -148 -331 -331c0 -169 126 -310 292 -328v-145h79v145c166 17 291 158 291 328zM742 315
c0 -173 -120 -317 -291 -347v-126c0 -10 -11 -21 -21 -21h-79c-11 0 -21 10 -21 21v126c-170 30 -292 175 -292 347c0 194 158 352 352 352c195 0 352 -157 352 -352zM621 315c0 128 -103 231 -231 231s-231 -103 -231 -231c0 -105 73 -201 171 -223v65c0 12 9 21 21 21h79
c11 0 21 -10 21 -21v-65c97 24 170 118 170 223z" />
    <glyph glyph-name="r" unicode="r" horiz-adv-x="627"
d="M465 452c0 -54 -53 -98 -118 -98h-189v197h189c66 0 118 -42 118 -99zM513 0h94l-143 220c-27 41 -47 62 -62 63c85 22 142 89 142 169c0 101 -88 178 -197 178h-267v-630h78v276h95c54 0 93 -19 117 -56zM513 -21c-7 0 -15 4 -18 10l-142 220c-20 31 -53 46 -100 46h-74
v-255c0 -11 -10 -21 -21 -21h-78c-11 0 -21 10 -21 21v630c0 11 10 21 21 21h267c121 0 218 -89 218 -199c0 -75 -42 -138 -118 -176c11 -11 23 -26 34 -44l144 -221c3 -4 4 -8 4 -12c0 -11 -10 -20 -22 -20h-94zM444 452c0 53 -55 78 -97 78h-168v-155h168
c53 0 97 34 97 77z" />
    <glyph glyph-name="s" unicode="s" horiz-adv-x="647"
d="M576 170c0 74 -36 125 -107 152c-246 48 -303 61 -303 139c0 70 75 106 158 106c91 0 157 -43 157 -106h79c0 104 -103 185 -236 185c-134 0 -237 -80 -237 -185c0 -77 35 -128 106 -155c20 -3 69 -13 197 -40c71 -16 107 -48 107 -96c0 -65 -67 -107 -173 -107
s-174 41 -174 107h-78c0 -109 110 -186 252 -186c144 0 252 79 252 186zM597 170c0 -121 -121 -207 -273 -207c-158 0 -273 87 -273 207c0 11 10 21 21 21h78c11 0 21 -10 21 -21c0 -54 57 -86 153 -86c94 0 152 34 152 86c0 37 -30 63 -90 76l-200 41
c-80 31 -120 89 -120 174c0 140 144 206 258 206c142 0 257 -85 257 -206c0 -10 -10 -21 -21 -21h-79c-12 0 -21 9 -21 21c0 50 -56 85 -136 85c-82 0 -137 -34 -137 -85c0 -38 30 -64 89 -78c13 -2 67 -13 196 -40c83 -32 125 -90 125 -173z" />
    <glyph glyph-name="t" unicode="t" horiz-adv-x="584"
d="M332 551h204v79h-488v-79h205v-551h79v551zM353 530v-530c0 -10 -11 -21 -21 -21h-79c-11 0 -21 10 -21 21v530h-184c-12 0 -21 9 -21 21v79c0 11 11 21 21 21h488c11 0 21 -10 21 -21v-79c0 -12 -9 -21 -21 -21h-183z" />
    <glyph glyph-name="u" unicode="u" horiz-adv-x="647"
d="M576 630h-79v-394c0 -94 -77 -173 -173 -173c-98 0 -174 76 -174 173v394h-78v-394c0 -140 112 -252 252 -252c130 0 252 106 252 252v394zM597 236c0 -150 -123 -273 -273 -273c-121 0 -273 89 -273 273v394c0 11 10 21 21 21h78c11 0 21 -10 21 -21v-394
c0 -87 66 -152 153 -152c83 0 152 69 152 152v394c0 11 11 21 21 21h79c10 0 21 -11 21 -21v-394z" />
    <glyph glyph-name="v" unicode="v" horiz-adv-x="622"
d="M353 0l230 630h-85l-187 -515l-188 515h-83l229 -630h84zM374 -7c-2 -6 -14 -14 -21 -14h-84c-9 0 -19 8 -21 14l-228 630c0 23 5 28 20 28h83c7 0 17 -7 20 -14l168 -460l167 460c3 7 13 14 20 14h85c14 1 20 -6 20 -28z" />
    <glyph glyph-name="w" unicode="w" horiz-adv-x="885"
d="M663 0l181 630h-81l-140 -487l-140 487h-81l-141 -487l-139 487h-82l180 -630h82l140 487l140 -487h81zM683 -6c-2 -8 -12 -15 -20 -15h-81c-8 0 -17 7 -20 15l-120 417l-120 -417c-2 -8 -12 -15 -20 -15h-82c-7 0 -17 7 -20 15l-180 630c0 21 6 27 20 27h82
c7 0 17 -7 20 -15l119 -417l120 417c2 8 12 15 21 15h81c8 0 18 -7 20 -15l120 -417l120 417c3 8 12 15 20 15h81c14 1 20 -5 20 -27z" />
    <glyph glyph-name="x" unicode="x" horiz-adv-x="629"
d="M488 0h97l-222 315l222 315h-97l-173 -246l-173 246h-98l222 -315l-222 -315h98l173 246zM488 -21c-5 0 -14 4 -17 9l-156 220l-156 -220c-2 -4 -12 -9 -17 -9h-98c-13 0 -23 9 -23 20c0 5 2 9 5 13l214 303l-214 303c-3 4 -5 8 -5 13c0 11 10 20 23 20h98
c5 0 15 -5 17 -9l156 -221l156 221c2 5 11 9 17 9h97c13 0 23 -9 23 -20c0 -5 -2 -9 -5 -13l-214 -303l214 -303c3 -4 5 -8 5 -13c0 -11 -10 -20 -23 -20h-97z" />
    <glyph glyph-name="y" unicode="y" horiz-adv-x="621"
d="M350 302l232 328h-98l-173 -246l-174 246h-97l231 -328v-302h79v302zM371 294v-294c0 -10 -11 -21 -21 -21h-79c-10 0 -21 10 -21 21v294l-227 324c-3 5 -5 9 -5 14c0 11 9 19 22 19h97c9 0 15 -3 18 -9l156 -221l155 221c3 5 14 9 18 9h98c12 0 22 -9 22 -20
c0 -5 -2 -9 -5 -13z" />
    <glyph glyph-name="z" unicode="z" horiz-adv-x="647"
d="M72 0h504v79h-398l398 472v79h-504v-79h396l-396 -472v-79zM72 -21c-11 0 -21 10 -21 21v86l372 444h-351c-12 0 -21 9 -21 21v79c0 11 10 21 21 21h504c10 0 21 -11 21 -21v-86l-374 -444h353c10 0 21 -11 21 -21v-79c0 -10 -11 -21 -21 -21h-504z" />
    <glyph glyph-name="braceleft" unicode="{" horiz-adv-x="443"
d="M357 -88v88h-35c-32 0 -61 29 -61 61v140c0 51 -40 105 -80 105c39 0 80 57 80 105v140c0 31 30 61 61 61h35v88h-44c-71 0 -140 -73 -140 -149v-149c0 -40 -26 -52 -87 -52v-88c61 0 87 -12 87 -52v-149c0 -75 69 -149 140 -149h44zM313 -109c-83 0 -161 84 -161 170
v149c0 17 -18 31 -40 31h-26c-12 0 -21 9 -21 21v88c0 11 10 21 21 21h26c24 0 40 13 40 31v149c0 88 78 170 161 170h44c10 0 21 -11 21 -21v-88c0 -10 -10 -21 -21 -21h-35c-20 0 -40 -20 -40 -40v-140c0 -36 -18 -74 -49 -105c32 -32 49 -70 49 -105v-140
c0 -21 19 -40 40 -40h35c10 0 21 -11 21 -21v-88c0 -10 -11 -21 -21 -21h-44z" />
    <glyph glyph-name="bar" unicode="|" horiz-adv-x="259"
d="M86 -88h87v788h-87v-788zM86 -109c-11 0 -21 10 -21 21v788c0 11 10 21 21 21h87c11 0 21 -10 21 -21v-788c0 -11 -10 -21 -21 -21h-87z" />
    <glyph glyph-name="braceright" unicode="}" horiz-adv-x="443"
d="M357 262v88c-62 0 -88 12 -88 52v149c0 76 -69 149 -140 149h-43v-88h35c31 0 61 -30 61 -61v-140c0 -48 39 -105 80 -105c-41 0 -80 -55 -80 -105v-140c0 -31 -30 -61 -61 -61h-35v-88h43c70 0 140 74 140 149v149c0 40 26 52 88 52zM331 241c-23 0 -41 -14 -41 -31
v-149c0 -86 -79 -170 -161 -170h-43c-11 0 -21 10 -21 21v88c0 11 10 21 21 21h35c20 0 40 20 40 40v140c0 37 17 74 48 105c-31 31 -48 68 -48 105v140c0 19 -21 40 -40 40h-35c-12 0 -21 9 -21 21v88c0 11 10 21 21 21h43c82 0 161 -83 161 -170v-149c0 -18 17 -31 41 -31
h26c10 0 21 -11 21 -21v-88c0 -10 -10 -21 -21 -21h-26z" />
    <glyph glyph-name="asciitilde" unicode="~" horiz-adv-x="525"
d="M374 311c-9 -25 -22 -38 -39 -38c-19 0 -45 7 -79 21s-60 21 -78 21c-41 0 -72 -26 -92 -77l64 -26c10 25 23 37 40 37s44 -7 79 -21c34 -14 60 -21 78 -21c41 0 72 26 92 77zM447 304l11 -28c-23 -60 -60 -90 -111 -90c-19 0 -48 8 -86 23c-30 13 -54 19 -71 19
c-7 0 -14 -8 -20 -24c-4 -10 -9 -14 -17 -14l-75 29c-9 3 -11 7 -13 19c0 29 46 98 113 98c19 0 47 -8 86 -23c30 -13 54 -19 71 -19c7 0 14 8 20 24c3 9 9 14 17 14c3 0 6 -1 10 -2z" />
    <glyph glyph-name="quotesinglbase" unicode="&#x201a;" horiz-adv-x="294"
d="M208 122h-122v-122h87c0 -40 -17 -88 -52 -88v-35c48 0 87 56 87 123v122zM229 0c0 -80 -48 -144 -108 -144c-11 0 -21 10 -21 21v35c0 12 9 21 21 21c13 0 25 18 29 46h-64c-11 0 -21 10 -21 21v122c0 12 9 21 21 21h122c12 0 21 -9 21 -21v-122z" />
    <glyph glyph-name="florin" unicode="&#x192;" horiz-adv-x="560"
d="M496 700c-19 11 -41 17 -65 17c-73 0 -140 -59 -149 -131l-27 -192h-88l-12 -88h87l-51 -367c-4 -24 -27 -44 -50 -44c-11 0 -19 3 -26 10l-51 -79c19 -13 40 -19 65 -19c71 0 138 59 149 132l52 367h87l13 88h-88l27 192c4 25 26 45 50 45c9 0 17 -3 26 -10zM463 610
c-4 -7 -9 -10 -17 -10c-4 1 -19 6 -27 10c-13 0 -26 -11 -29 -26l-23 -169h63c13 1 21 -8 21 -24l-13 -87c-1 -13 -8 -19 -21 -19h-69l-49 -349c-12 -86 -90 -150 -170 -150c-54 0 -84 19 -87 40c0 4 2 8 4 11l52 79c4 7 9 10 17 10c1 0 19 -7 26 -10c12 0 27 12 29 25
l48 344h-63c-18 0 -21 10 -21 24l12 87c3 13 10 19 21 19h69l25 174c12 84 87 149 170 149c46 0 84 -16 87 -38c0 -4 -2 -8 -4 -11z" />
    <glyph glyph-name="quotedblbase" unicode="&#x201e;" horiz-adv-x="486"
d="M208 122h-122v-122h87c0 -40 -17 -88 -52 -88v-35c48 0 87 56 87 123v122zM401 122h-123v-122h88c0 -48 -24 -88 -53 -88v-35c48 0 88 56 88 123v122zM422 0c0 -39 -10 -72 -30 -99c-22 -30 -48 -45 -79 -45c-10 0 -21 10 -21 21v35c0 12 9 21 21 21c14 0 26 18 30 46
h-65c-10 0 -21 10 -21 21v122c0 12 9 21 21 21h123c11 0 21 -10 21 -21v-122zM229 0c0 -80 -48 -144 -108 -144c-11 0 -21 10 -21 21v35c0 12 9 21 21 21c13 0 25 18 29 46h-64c-11 0 -21 10 -21 21v122c0 12 9 21 21 21h122c12 0 21 -9 21 -21v-122z" />
    <glyph glyph-name="ellipsis" unicode="&#x2026;" horiz-adv-x="749"
d="M208 61c0 34 -27 61 -61 61c-35 0 -61 -26 -61 -61c0 -36 25 -61 61 -61c35 0 61 26 61 61zM436 61c0 42 -35 61 -62 61c-35 0 -61 -26 -61 -61c0 -36 25 -61 61 -61s62 26 62 61zM663 61c0 34 -27 61 -61 61c-35 0 -61 -26 -61 -61c0 -36 25 -61 61 -61
c35 0 61 26 61 61zM684 61c0 -46 -36 -82 -82 -82c-47 0 -82 35 -82 82s35 82 82 82c46 0 82 -36 82 -82zM229 61c0 -46 -36 -82 -82 -82c-47 0 -82 35 -82 82s35 82 82 82c46 0 82 -36 82 -82zM457 61c0 -46 -36 -82 -83 -82c-46 0 -82 36 -82 82s36 82 82 82
c47 0 83 -36 83 -82z" />
    <glyph glyph-name="dagger" unicode="&#x2020;" horiz-adv-x="530"
d="M309 437h135v88h-135v175h-88v-175h-135v-88h135v-612h88v612zM330 416v-591c0 -10 -11 -21 -21 -21h-88c-10 0 -21 10 -21 21v591h-114c-12 0 -21 9 -21 21v88c0 11 10 21 21 21h114v154c0 11 11 21 21 21h88c10 0 21 -11 21 -21v-154h114c11 0 21 -10 21 -21v-88
c0 -12 -9 -21 -21 -21h-114z" />
    <glyph glyph-name="daggerdbl" unicode="&#x2021;" horiz-adv-x="530"
d="M309 175h135v87h-135v175h135v88h-135v175h-88v-175h-135v-88h135v-175h-135v-87h135v-350h88v350zM330 154v-329c0 -10 -11 -21 -21 -21h-88c-10 0 -21 10 -21 21v329h-114c-12 0 -21 9 -21 21v87c0 12 9 21 21 21h114v133h-114c-12 0 -21 9 -21 21v88c0 11 10 21 21 21
h114v154c0 11 11 21 21 21h88c10 0 21 -11 21 -21v-154h114c11 0 21 -10 21 -21v-88c0 -12 -9 -21 -21 -21h-114v-133h114c12 0 21 -9 21 -21v-87c0 -12 -9 -21 -21 -21h-114z" />
    <glyph glyph-name="circumflex" unicode="&#x2c6;" horiz-adv-x="381"
d="M243 595h53l-70 105h-70l-70 -105h52l53 63zM243 574c-6 0 -13 4 -16 8l-36 44l-37 -44c-4 -5 -9 -8 -16 -8h-52c-14 0 -22 7 -22 19c0 4 1 9 4 13l70 105c3 6 11 10 18 10h70c5 0 15 -6 17 -10l70 -105c3 -4 5 -8 5 -13c0 -11 -9 -19 -22 -19h-53z" />
    <glyph glyph-name="perthousand" unicode="&#x2030;" horiz-adv-x="1318"
d="M366 542c0 -57 -48 -105 -105 -105c-59 0 -105 46 -105 105s46 105 105 105s105 -46 105 -105zM759 157c0 -59 -46 -105 -105 -105c-57 0 -105 48 -105 105c0 59 46 105 105 105c61 0 105 -44 105 -105zM1162 157c0 -57 -48 -105 -105 -105c-58 0 -105 47 -105 105
c0 59 46 105 105 105s105 -46 105 -105zM436 542c0 97 -78 175 -175 175c-99 0 -175 -76 -175 -175s76 -175 175 -175c97 0 175 78 175 175zM199 0l604 700h-87l-604 -700h87zM829 157c0 98 -77 175 -175 175s-175 -77 -175 -175s77 -175 175 -175s175 77 175 175zM1232 157
c0 97 -78 175 -175 175c-98 0 -175 -77 -175 -175s77 -175 175 -175c97 0 175 78 175 175zM1253 157c0 -109 -87 -196 -196 -196c-110 0 -196 86 -196 196s86 196 196 196c109 0 196 -87 196 -196zM850 157c0 -110 -87 -196 -196 -196c-110 0 -196 86 -196 196
s86 196 196 196c109 0 196 -87 196 -196zM457 542c0 -109 -87 -196 -196 -196c-110 0 -196 86 -196 196s86 196 196 196c109 0 196 -87 196 -196zM215 -14c-2 -2 -12 -7 -16 -7h-87c-12 0 -22 9 -22 20c0 5 2 10 6 15l604 700c2 2 12 7 16 7h87c12 0 21 -9 21 -21
c0 -5 -1 -10 -5 -14zM738 157c0 49 -35 84 -84 84c-47 0 -84 -37 -84 -84c0 -46 38 -84 84 -84c47 0 84 37 84 84zM1141 157c0 47 -37 84 -84 84c-48 0 -84 -36 -84 -84c0 -47 37 -84 84 -84c46 0 84 38 84 84zM345 542c0 47 -37 84 -84 84s-84 -37 -84 -84
c0 -36 27 -84 84 -84c46 0 84 38 84 84z" />
    <glyph glyph-name="guilsinglleft" unicode="&#x2039;" horiz-adv-x="416"
d="M291 130l39 59l-170 115l170 114l-39 59l-205 -138v-70zM309 119c-4 -7 -10 -10 -16 -10c-4 0 -8 1 -13 4l-206 138c-7 5 -9 15 -9 18v70c0 5 5 14 9 17l206 138c5 3 9 4 13 4c6 0 12 -3 16 -10l38 -58c3 -5 4 -9 4 -13c0 -6 -3 -12 -10 -16l-144 -97l144 -98
c7 -5 8 -8 10 -17c0 -4 -2 -8 -4 -11z" />
    <glyph glyph-name="OE" unicode="&#x152;" horiz-adv-x="1200"
d="M711 350c0 -156 -124 -280 -280 -280c-155 0 -280 125 -280 280s125 280 280 280c156 0 280 -124 280 -280zM711 0h403v87h-315v219h227v88h-227v218h315v88h-403v-112c-72 86 -165 129 -280 129c-206 0 -367 -162 -367 -367c0 -203 161 -368 367 -368
c114 0 207 43 280 130v-112zM711 -21c-10 0 -21 10 -21 21v59c-71 -65 -158 -98 -259 -98c-214 0 -388 171 -388 389c0 217 171 388 388 388c102 0 188 -33 259 -98v60c0 11 11 21 21 21h403c10 0 21 -11 21 -21v-88c0 -10 -10 -21 -21 -21h-294v-176h206
c11 0 21 -10 21 -21v-88c0 -12 -9 -21 -21 -21h-206v-177h294c11 0 21 -10 21 -21v-87c0 -10 -11 -21 -21 -21h-403zM690 350c0 144 -115 259 -259 259s-259 -115 -259 -259s115 -259 259 -259s259 115 259 259z" />
    <glyph glyph-name="quoteleft" unicode="&#x2018;" horiz-adv-x="294"
d="M86 455h122v122h-87c0 37 16 88 52 88v35c-49 0 -87 -54 -87 -123v-122zM86 434c-12 0 -21 9 -21 21v122c0 80 45 144 108 144c11 0 21 -10 21 -21v-35c0 -12 -9 -21 -21 -21c-14 0 -26 -18 -30 -46h65c12 0 21 -9 21 -21v-122c0 -12 -9 -21 -21 -21h-122z" />
    <glyph glyph-name="quoteright" unicode="&#x2019;" horiz-adv-x="294"
d="M208 700h-122v-123h87c0 -50 -23 -87 -52 -87v-35c48 0 87 55 87 122v123zM229 577c0 -79 -49 -143 -108 -143c-12 0 -21 9 -21 21v35c0 11 10 21 21 21c19 0 27 30 29 45h-64c-12 0 -21 9 -21 21v123c0 11 10 21 21 21h122c11 0 21 -10 21 -21v-123z" />
    <glyph glyph-name="quotedblleft" unicode="&#x201c;" horiz-adv-x="486"
d="M86 455h122v122h-87c0 37 16 88 52 88v35c-49 0 -87 -54 -87 -123v-122zM278 455h123v122h-88c0 51 24 88 53 88v35c-49 0 -88 -55 -88 -123v-122zM278 434c-12 0 -21 9 -21 21v122c0 80 46 144 109 144c10 0 21 -11 21 -21v-35c0 -10 -10 -21 -21 -21
c-15 0 -27 -19 -30 -46h65c11 0 21 -10 21 -21v-122c0 -10 -10 -21 -21 -21h-123zM86 434c-12 0 -21 9 -21 21v122c0 80 45 144 108 144c11 0 21 -10 21 -21v-35c0 -12 -9 -21 -21 -21c-14 0 -26 -18 -30 -46h65c12 0 21 -9 21 -21v-122c0 -12 -9 -21 -21 -21h-122z" />
    <glyph glyph-name="quotedblright" unicode="&#x201d;" horiz-adv-x="486"
d="M208 700h-122v-123h87c0 -50 -23 -87 -52 -87v-35c48 0 87 55 87 122v123zM401 700h-123v-123h88c0 -47 -23 -87 -53 -87v-35c48 0 88 55 88 122v123zM422 577c0 -39 -10 -71 -30 -98c-22 -30 -48 -45 -79 -45c-12 0 -21 9 -21 21v35c0 11 11 21 21 21c19 0 27 25 30 45
h-65c-12 0 -21 9 -21 21v123c0 11 11 21 21 21h123c10 0 21 -11 21 -21v-123zM229 577c0 -79 -49 -143 -108 -143c-12 0 -21 9 -21 21v35c0 11 10 21 21 21c19 0 27 30 29 45h-64c-12 0 -21 9 -21 21v123c0 11 10 21 21 21h122c11 0 21 -10 21 -21v-123z" />
    <glyph glyph-name="bullet" unicode="&#x2022;" horiz-adv-x="486"
d="M401 262c0 88 -70 158 -158 158s-157 -70 -157 -158c0 -87 70 -157 157 -157c88 0 158 69 158 157zM422 262c0 -99 -80 -178 -179 -178s-178 79 -178 178s79 179 178 179c98 0 179 -81 179 -179z" />
    <glyph glyph-name="endash" unicode="&#x2013;" horiz-adv-x="434"
d="M86 227h262v70h-262v-70zM86 206c-12 0 -21 9 -21 21v70c0 12 9 21 21 21h262c12 0 21 -9 21 -21v-70c0 -12 -9 -21 -21 -21h-262z" />
    <glyph glyph-name="emdash" unicode="&#x2014;" horiz-adv-x="609"
d="M86 227h437v70h-437v-70zM86 206c-12 0 -21 9 -21 21v70c0 12 9 21 21 21h437c12 0 21 -9 21 -21v-70c0 -12 -9 -21 -21 -21h-437z" />
    <glyph glyph-name="tilde" unicode="&#x2dc;" horiz-adv-x="437"
d="M303 696c-8 -28 -18 -42 -30 -42c-15 0 -35 7 -60 22c-24 16 -43 24 -58 24c-31 0 -54 -26 -69 -77l49 -26c8 28 18 42 29 42c15 0 35 -8 59 -24c25 -15 45 -23 60 -23c30 0 53 26 68 77zM360 688l11 -25c-18 -61 -47 -92 -88 -92c-22 0 -39 7 -71 26
c-22 14 -38 21 -48 21c-13 -39 -14 -41 -28 -43c-4 0 -7 1 -11 3l-49 27c-6 3 -11 11 -11 18c0 40 42 98 90 98c19 0 42 -9 70 -27l-1 1c23 -13 40 -20 49 -20c15 40 16 42 29 42c3 0 7 -1 10 -3z" />
    <glyph glyph-name="trademark" unicode="&#x2122;" horiz-adv-x="808"
d="M661 332h62v368h-85l-98 -270l-98 270h-356v-61h113v-307h62v307h96v-307h61v254l92 -254h60l91 253v-253zM661 311c-12 0 -21 9 -21 21v133l-50 -140c-2 -5 -11 -14 -20 -14h-60c-8 0 -17 6 -20 14l-51 140v-133c0 -12 -9 -21 -21 -21h-61c-12 0 -21 9 -21 21v286h-54
v-286c0 -10 -10 -21 -21 -21h-62c-12 0 -21 9 -21 21v286h-92c-12 0 -21 9 -21 21v61c0 11 10 21 21 21h356c7 0 17 -7 20 -14l78 -214l78 214c3 7 13 14 20 14h85c10 0 21 -11 21 -21v-368c0 -10 -10 -21 -21 -21h-62z" />
    <glyph glyph-name="guilsinglright" unicode="&#x203a;" horiz-adv-x="416"
d="M124 130l206 139v70l-206 138l-38 -59l169 -114l-169 -115zM136 113c-5 -3 -9 -4 -13 -4c-6 0 -12 3 -16 10l-39 59c-2 3 -4 7 -4 11c0 6 4 13 10 17l144 98l-144 97c-6 4 -8 9 -10 18c0 3 2 7 4 11l39 58c4 7 10 10 16 10c4 0 8 -1 13 -4l205 -138c4 -2 10 -12 10 -17
v-70c0 -7 -4 -15 -10 -18z" />
    <glyph glyph-name="oe" unicode="&#x153;" horiz-adv-x="1084"
d="M642 315c0 -140 -112 -252 -252 -252c-139 0 -252 113 -252 252s113 252 252 252c140 0 252 -112 252 -252zM642 0h362v79h-283v197h205v78h-205v197h283v79h-362v-101c-66 78 -150 117 -252 117c-183 0 -331 -148 -331 -331c0 -184 147 -331 331 -331
c102 0 186 39 252 117v-101zM642 -21c-10 0 -21 10 -21 21v49c-65 -57 -142 -86 -231 -86c-195 0 -352 157 -352 352c0 194 158 352 352 352c89 0 166 -29 231 -86v49c0 11 11 21 21 21h362c11 0 21 -10 21 -21v-79c0 -12 -9 -21 -21 -21h-262v-155h184c11 0 21 -10 21 -21
v-78c0 -11 -10 -21 -21 -21h-184v-155h262c11 0 21 -10 21 -21v-79c0 -11 -10 -21 -21 -21h-362zM621 315c0 128 -103 231 -231 231s-231 -103 -231 -231s103 -231 231 -231s231 103 231 231z" />
    <glyph glyph-name="Ydieresis" unicode="&#x178;" horiz-adv-x="686"
d="M387 335l257 365h-109l-192 -273l-193 273h-108l257 -365v-335h88v335zM299 814c0 24 -20 43 -44 43s-43 -19 -43 -43c0 -26 17 -44 43 -44c25 0 44 19 44 44zM474 814c0 24 -20 43 -44 43s-43 -19 -43 -43c0 -26 17 -44 43 -44c25 0 44 19 44 44zM408 327v-327
c0 -10 -11 -21 -21 -21h-88c-10 0 -21 10 -21 21v327l-254 361c-3 4 -5 8 -5 13c0 11 10 20 23 20h108c9 0 15 -3 18 -9l175 -248l175 248c2 5 11 9 17 9h109c12 0 22 -9 22 -20c0 -5 -2 -9 -5 -13zM320 814c0 -37 -28 -65 -65 -65c-35 0 -64 29 -64 65c0 35 29 64 64 64
c36 0 65 -28 65 -64zM495 814c0 -37 -28 -65 -65 -65c-35 0 -64 29 -64 65c0 35 29 64 64 64c36 0 65 -28 65 -64z" />
    <glyph glyph-name="exclamdown" unicode="&#xa1;" horiz-adv-x="294"
d="M103 -88h88l-18 508h-52zM208 551c0 34 -27 61 -61 61c-35 0 -61 -26 -61 -61c0 -36 25 -61 61 -61c35 0 61 26 61 61zM103 -109c-11 0 -21 10 -21 22l18 508c0 11 9 20 21 20h52c12 0 21 -9 21 -20l18 -508c0 -12 -10 -22 -21 -22h-88zM229 551c0 -46 -36 -82 -82 -82
c-47 0 -82 35 -82 82s35 82 82 82c46 0 82 -36 82 -82z" />
    <glyph glyph-name="cent" unicode="&#xa2;" horiz-adv-x="674"
d="M322 75c-87 20 -149 98 -149 187c0 90 62 168 149 188v-375zM514 140c-27 -33 -62 -55 -105 -65v375c43 -10 78 -32 105 -65l73 48c-45 59 -105 95 -178 106v91h-87v-91c-138 -23 -236 -138 -236 -277c0 -140 101 -256 236 -276v-91h87v91c73 11 132 46 179 107zM599 110
l6 -30c-46 -60 -104 -97 -175 -112v-73c0 -11 -10 -21 -21 -21h-87c-10 0 -21 10 -21 21v73c-137 30 -236 149 -236 294c0 143 98 265 236 294v74c0 11 11 21 21 21h87c11 0 21 -10 21 -21v-74c85 -18 179 -94 179 -122c0 -7 -4 -14 -11 -18l-72 -49c-3 -2 -7 -4 -11 -4
c-6 0 -13 4 -17 9c-19 23 -41 39 -68 50v-320c27 11 49 28 68 51c5 6 8 6 17 8c4 0 8 -2 11 -4zM301 102v320c-57 -23 -107 -83 -107 -160c0 -68 45 -136 107 -160z" />
    <glyph glyph-name="sterling" unicode="&#xa3;" horiz-adv-x="677"
d="M591 601c-43 73 -119 116 -203 116c-131 0 -237 -105 -237 -236v-87h-87v-88h87v-306h438v87h-350v219h175v88h-175v87c0 83 66 149 149 149c53 0 95 -23 126 -70zM523 542c-3 -2 -7 -4 -11 -4c-5 0 -11 4 -16 11c-25 40 -61 60 -108 60c-71 0 -128 -57 -128 -128v-66
h154c10 0 21 -11 21 -21v-88c0 -10 -10 -21 -21 -21h-154v-177h329c11 0 21 -10 21 -21v-87c0 -10 -11 -21 -21 -21h-438c-10 0 -21 10 -21 21v285h-66c-12 0 -21 9 -21 21v88c0 11 10 21 21 21h66v66c0 142 115 257 258 257c109 0 225 -91 225 -136c0 -11 -7 -17 -12 -19z
" />
    <glyph glyph-name="currency" unicode="&#xa4;" horiz-adv-x="839"
d="M753 647c-63 47 -135 70 -217 70c-160 0 -299 -101 -349 -253h-75l-26 -70h86l-2 -66v-22h-58l-26 -70h101c50 -153 189 -254 349 -254c66 0 128 17 186 51v107c-55 -47 -117 -70 -186 -70c-111 0 -209 64 -255 166h323l25 70h-369c-3 13 -3 18 -4 44c0 18 1 29 4 44h401
l26 70h-406c47 101 146 166 255 166c69 0 131 -23 186 -70zM742 553c-3 -9 -8 -13 -20 -15c-5 0 -10 2 -14 6c-49 43 -107 65 -172 65c-91 0 -165 -42 -220 -124h371c20 -1 20 -12 20 -28l-25 -70c-1 -3 -9 -14 -21 -14h-383v-46h351c15 1 20 -3 20 -28l-25 -70
c-3 -8 -12 -14 -20 -14h-288c50 -79 129 -124 220 -124c65 0 123 22 172 65c4 4 9 5 14 5c12 0 21 -9 21 -21v-107c0 -31 -118 -72 -207 -72c-164 0 -308 101 -364 254h-86c-15 0 -20 5 -20 28l27 70c1 4 9 14 19 14h36v46h-62c-15 0 -20 5 -20 28l27 70c1 4 9 14 19 14h59
c56 150 203 253 365 253c76 0 237 -42 237 -98z" />
    <glyph glyph-name="yen" unicode="&#xa5;" horiz-adv-x="773"
d="M459 376l229 324h-109l-192 -273l-193 273h-108l228 -324h-190v-70h219v-87h-219v-70h219v-149h87v149h219v70h-219v87h219v70h-190zM500 397h149c12 0 21 -9 21 -21v-70c0 -12 -9 -21 -21 -21h-198v-45h198c11 0 21 -10 21 -21v-70c0 -12 -9 -21 -21 -21h-198v-128
c0 -11 -10 -21 -21 -21h-87c-10 0 -21 10 -21 21v128h-198c-12 0 -21 9 -21 21v70c0 11 11 21 21 21h198v45h-198c-12 0 -21 9 -21 21v70c0 12 9 21 21 21h149l-205 291c-3 4 -5 8 -5 13c0 11 10 20 23 20h108c4 0 15 -4 18 -9l175 -248l175 248c2 5 11 9 17 9h109
c12 0 22 -9 22 -20c0 -5 -2 -9 -5 -13z" />
    <glyph glyph-name="section" unicode="&#xa7;" horiz-adv-x="609"
d="M436 319c0 -45 -49 -74 -123 -74c-75 0 -131 31 -131 74c0 48 46 76 120 76c78 0 134 -32 134 -76zM523 83c0 56 -22 97 -66 122c44 27 66 65 66 114c0 65 -29 109 -88 132c-4 2 -75 17 -165 35c-59 11 -88 34 -88 70c0 45 49 74 122 74c67 5 123 -28 123 -74h87
c0 93 -91 161 -210 161c-120 0 -210 -69 -210 -161c0 -57 22 -98 65 -122c-43 -27 -65 -66 -65 -115c0 -65 30 -109 89 -133c8 -3 63 -14 164 -34c59 -11 89 -34 89 -69c0 -49 -44 -74 -132 -74c-93 5 -131 25 -131 74h-87c0 -99 99 -162 218 -162c126 0 219 67 219 162z
M544 83c0 -108 -102 -183 -240 -183c-140 0 -239 76 -239 183c0 11 10 21 21 21h87c12 0 21 -10 21 -24c0 -35 38 -47 110 -50c74 0 111 18 111 53c0 33 -15 36 -240 83c-68 27 -102 78 -102 153c0 46 17 84 50 114c-33 28 -50 69 -50 123c0 104 99 182 231 182
s231 -76 231 -182c0 -12 -9 -21 -21 -21h-87c-12 0 -21 9 -21 22c0 31 -42 52 -102 52c-61 0 -101 -21 -101 -53c0 -33 2 -34 240 -85c67 -27 101 -78 101 -152c0 -47 -17 -84 -51 -113c34 -28 51 -69 51 -123zM415 319c0 16 -13 30 -38 41c-22 9 -47 14 -75 14
c-60 0 -99 -21 -99 -55c0 -36 64 -53 110 -53c29 0 53 4 71 13c21 10 31 23 31 40z" />
    <glyph glyph-name="dieresis" unicode="&#xa8;" horiz-adv-x="434"
d="M173 656c0 25 -19 44 -44 44s-43 -19 -43 -44s19 -44 43 -44c25 0 44 19 44 44zM348 656c0 25 -19 44 -44 44s-43 -19 -43 -44s19 -44 43 -44c25 0 44 19 44 44zM369 656c0 -37 -28 -65 -65 -65c-35 0 -64 29 -64 65s29 65 64 65c37 0 65 -28 65 -65zM194 656
c0 -37 -28 -65 -65 -65c-35 0 -64 29 -64 65s29 65 64 65c37 0 65 -28 65 -65z" />
    <glyph glyph-name="copyright" unicode="&#xa9;"
d="M469 176c-27 -27 -60 -40 -99 -40c-78 0 -140 62 -140 140c0 77 63 140 140 140c39 0 72 -14 99 -41l31 31c-35 35 -79 53 -130 53c-102 0 -184 -81 -184 -183c0 -103 81 -184 184 -184c51 0 95 18 130 54zM589 276c0 -126 -102 -228 -228 -228c-127 0 -227 101 -227 228
c0 126 101 227 227 227c125 0 228 -103 228 -227zM637 276c0 153 -123 275 -276 275s-275 -122 -275 -275c0 -155 121 -276 275 -276s276 122 276 276zM658 276c0 -165 -132 -297 -297 -297s-296 132 -296 297s131 296 296 296s297 -132 297 -296zM514 161l1 -23
c35 39 53 85 53 138c0 48 -16 91 -47 128c0 -5 -2 -9 -6 -13l-31 -31c-5 -3 -10 -5 -15 -5s-10 2 -15 5c-23 23 -51 35 -84 35c-66 0 -119 -53 -119 -119s53 -119 119 -119c33 0 61 11 84 34c4 4 9 6 14 6c6 0 11 -2 15 -6zM361 69c15 0 31 2 48 5c-12 -2 -25 -3 -39 -3
c-115 0 -205 90 -205 205c0 127 89 203 236 203c-13 2 -27 3 -40 3c-114 0 -206 -92 -206 -206c0 -116 90 -207 206 -207z" />
    <glyph glyph-name="ordfeminine" unicode="&#xaa;" horiz-adv-x="591"
d="M440 503c0 -79 -65 -144 -144 -144c-82 0 -145 63 -145 144s63 144 145 144c80 0 144 -64 144 -144zM440 306h66v394h-66v-71c-39 56 -92 84 -157 84c-111 0 -197 -92 -197 -210c0 -116 87 -210 197 -210c65 0 118 28 157 84v-71zM440 285c-12 0 -21 9 -21 21v16
c-39 -33 -85 -50 -136 -50c-122 0 -218 102 -218 231c0 130 95 231 218 231c51 0 97 -17 136 -50v16c0 11 11 21 21 21h66c10 0 21 -11 21 -21v-394c0 -10 -10 -21 -21 -21h-66zM419 503c0 67 -56 123 -123 123c-69 0 -124 -55 -124 -123c0 -69 55 -123 124 -123
c67 0 123 56 123 123z" />
    <glyph glyph-name="guillemotleft" unicode="&#xab;" horiz-adv-x="757"
d="M344 0l38 59l-222 149l222 150l-38 58l-258 -173v-70zM633 0l38 59l-222 149l222 150l-38 58l-259 -173v-70zM650 -11c-5 -7 -11 -11 -17 -11c-4 0 -8 1 -12 4l-258 174c-6 4 -10 11 -10 17v70c0 9 8 16 10 18l258 173c4 2 8 4 11 4c7 0 14 -4 18 -10l39 -59
c2 -3 4 -7 4 -11c0 -7 -4 -14 -11 -18l-196 -132l196 -132c7 -5 11 -11 11 -17c0 -4 -1 -8 -4 -12zM361 -11c-5 -7 -11 -11 -17 -11c-4 0 -8 1 -12 4l-258 174c-7 5 -9 14 -9 17v70c0 5 5 15 9 18l258 173c4 2 8 4 11 4c7 0 14 -4 18 -10l39 -59c2 -3 4 -7 4 -11
c0 -7 -4 -14 -10 -18l-197 -132l197 -132c6 -4 8 -9 10 -18c0 -3 -2 -7 -4 -11z" />
    <glyph glyph-name="logicalnot" unicode="&#xac;" horiz-adv-x="521"
d="M366 140h70v157h-350v-70h280v-87zM366 119c-12 0 -21 9 -21 21v66h-259c-12 0 -21 9 -21 21v70c0 12 9 21 21 21h350c11 0 21 -10 21 -21v-157c0 -10 -10 -21 -21 -21h-70z" />
    <glyph glyph-name="registered" unicode="&#xae;"
d="M589 276c0 -65 -24 -120 -71 -165l-73 112c-13 21 -25 32 -34 35c48 11 79 49 79 95c0 54 -49 98 -109 98h-149v-350h44v153h52c31 0 53 -10 66 -31l79 -122h34c-43 -35 -92 -53 -146 -53c-127 0 -227 101 -227 228c0 126 101 227 227 227c125 0 228 -103 228 -227z
M446 353c0 -32 -28 -56 -65 -56h-105v110h105c36 0 65 -24 65 -54zM637 276c0 153 -123 275 -276 275s-275 -122 -275 -275c0 -155 121 -276 275 -276s276 122 276 276zM658 276c0 -165 -132 -297 -297 -297s-296 132 -296 297s131 296 296 296s297 -132 297 -296zM297 101
c0 -7 -4 -14 -11 -19c21 -9 46 -13 75 -13c35 0 66 7 94 21l-79 122c-9 14 -25 21 -48 21h-31v-132zM568 276c0 114 -93 206 -207 206c-24 0 -46 -3 -65 -10h85c70 0 130 -54 130 -119c0 -41 -22 -78 -60 -101l70 -108c31 37 47 81 47 132zM155 276c0 -56 19 -103 56 -142
v282c-38 -38 -56 -84 -56 -140zM425 353c0 19 -19 33 -44 33h-84v-68h84c25 0 44 15 44 35z" />
    <glyph glyph-name="degree" unicode="&#xb0;" horiz-adv-x="364"
d="M243 604c0 -27 -19 -62 -61 -62c-35 0 -61 26 -61 62c0 35 26 61 61 61c34 0 61 -27 61 -61zM278 604c0 54 -42 96 -96 96s-96 -42 -96 -96c0 -56 41 -97 96 -97c56 0 96 41 96 97zM299 604c0 -65 -53 -118 -117 -118c-65 0 -117 53 -117 118c0 64 53 117 117 117
c60 0 117 -49 117 -117zM222 604c0 22 -18 40 -40 40c-23 0 -40 -17 -40 -40c0 -24 17 -41 40 -41c22 0 40 18 40 41z" />
    <glyph glyph-name="plusminus" unicode="&#xb1;" horiz-adv-x="521"
d="M86 0h350v70h-350v-70zM296 315h140v70h-140v140h-70v-140h-140v-70h140v-140h70v140zM317 294v-119c0 -10 -10 -21 -21 -21h-70c-12 0 -21 9 -21 21v119h-119c-12 0 -21 9 -21 21v70c0 11 10 21 21 21h119v119c0 11 10 21 21 21h70c10 0 21 -11 21 -21v-119h119
c10 0 21 -11 21 -21v-70c0 -10 -10 -21 -21 -21h-119zM86 -21c-11 0 -21 10 -21 21v70c0 11 10 21 21 21h350c10 0 21 -11 21 -21v-70c0 -10 -11 -21 -21 -21h-350z" />
    <glyph glyph-name="acute" unicode="&#xb4;" horiz-adv-x="311"
d="M138 595l88 105h-88l-52 -105h52zM154 582c-4 -5 -9 -8 -16 -8h-52c-12 0 -22 9 -22 20c0 4 1 7 3 11l53 105c3 7 9 11 18 11h88c12 0 21 -9 21 -20c0 -5 -2 -9 -6 -14z" />
    <glyph glyph-name="paragraph" unicode="&#xb6;" horiz-adv-x="775"
d="M584 612h105v88h-385c-123 0 -218 -86 -218 -197s95 -197 218 -197v-481h88v787h105v-787h87v787zM605 591v-766c0 -11 -10 -21 -21 -21h-87c-10 0 -21 10 -21 21v766h-63v-766c0 -10 -11 -21 -21 -21h-88c-10 0 -21 10 -21 21v461c-121 9 -218 102 -218 217
c0 122 105 218 239 218h385c11 0 21 -10 21 -21v-88c0 -12 -9 -21 -21 -21h-84z" />
    <glyph glyph-name="periodcentered" unicode="&#xb7;" horiz-adv-x="294"
d="M208 262c0 27 -19 62 -61 62c-35 0 -61 -26 -61 -62s25 -61 61 -61c35 0 61 26 61 61zM229 262c0 -46 -36 -82 -82 -82c-47 0 -82 35 -82 82c0 48 35 83 82 83c46 0 82 -36 82 -83z" />
    <glyph glyph-name="cedilla" unicode="&#xb8;" horiz-adv-x="311"
d="M226 -105c0 33 -24 61 -56 68l12 54h-35l-18 -78h27c23 0 43 -20 43 -44s-20 -44 -43 -44h-62l-8 -26h70c38 0 70 32 70 70zM247 -105c0 -50 -41 -91 -91 -91h-70c-11 0 -22 9 -22 19l10 35c4 10 16 14 20 14h62c11 0 22 11 22 23s-11 23 -22 23h-27c-17 0 -20 3 -20 25
l18 79c3 11 9 16 20 16h35c13 0 20 -4 20 -25l-9 -36c33 -15 54 -47 54 -82z" />
    <glyph glyph-name="ordmasculine" unicode="&#xba;" horiz-adv-x="591"
d="M440 503c0 -79 -65 -144 -144 -144c-82 0 -145 63 -145 144s63 144 145 144c80 0 144 -64 144 -144zM506 503c0 116 -96 210 -210 210c-117 0 -210 -93 -210 -210c0 -118 92 -210 210 -210c117 0 210 93 210 210zM527 503c0 -128 -103 -231 -231 -231
c-130 0 -231 101 -231 231c0 128 103 231 231 231c126 0 231 -105 231 -231zM419 503c0 67 -56 123 -123 123c-69 0 -124 -55 -124 -123c0 -69 55 -123 124 -123c67 0 123 56 123 123z" />
    <glyph glyph-name="guillemotright" unicode="&#xbb;" horiz-adv-x="757"
d="M124 0l258 173v70l-258 173l-38 -58l222 -150l-222 -149zM413 0l258 173v70l-258 173l-39 -58l223 -150l-223 -149zM424 -18c-3 -2 -7 -4 -11 -4c-7 0 -14 4 -18 11l-38 58c-3 5 -4 9 -4 13c0 6 3 12 10 16l196 132l-196 132c-7 4 -10 9 -10 16c0 5 1 9 4 13l38 59
c4 6 9 9 18 10c4 0 8 -2 11 -4l258 -173c6 -3 10 -13 10 -18v-70c0 -3 -2 -13 -10 -17zM136 -18c-4 -3 -8 -4 -12 -4c-6 0 -12 4 -17 11l-39 58c-2 4 -4 8 -4 11c0 7 4 14 10 18l196 132l-196 132c-6 4 -9 9 -10 18c0 4 2 8 4 11l39 59c4 6 9 8 18 10c3 0 7 -2 11 -4
l258 -173c4 -3 9 -13 9 -18v-70c0 -3 -2 -12 -9 -17z" />
    <glyph glyph-name="questiondown" unicode="&#xbf;" horiz-adv-x="486"
d="M313 57c-1 -42 -32 -75 -70 -75c-39 0 -70 33 -70 75c0 43 22 71 84 117c55 44 83 72 83 138c0 5 -3 41 -9 108h-53c-16 -161 -16 -162 -150 -248c-28 -25 -42 -64 -42 -115c0 -91 69 -162 157 -162c87 0 158 74 158 162h-88zM366 551c0 42 -35 61 -62 61
c-35 0 -61 -26 -61 -61c0 -36 25 -61 61 -61s62 26 62 61zM401 78l21 -21c0 -99 -81 -183 -179 -183c-100 0 -178 82 -178 183c0 95 12 104 134 188c28 21 44 51 49 90c12 106 12 106 30 106h53c20 0 24 -5 30 -129c0 -78 -16 -91 -131 -187l1 1c-25 -21 -37 -44 -37 -69
c0 -30 21 -54 49 -54c26 0 48 24 49 55c0 11 9 20 21 20h88zM387 551c0 -46 -36 -82 -83 -82c-46 0 -82 36 -82 82s36 82 82 82c47 0 83 -36 83 -82z" />
    <glyph glyph-name="Agrave" unicode="&#xc0;" horiz-adv-x="687"
d="M343 572l119 -327h-238zM551 0h94l-255 700h-93l-255 -700h93l57 157h301zM317 770h52l-52 105h-88zM551 -21c-7 0 -17 7 -20 14l-52 143h-272l-52 -143c-3 -7 -13 -14 -20 -14h-93c-11 0 -20 2 -20 28l254 700c2 6 12 14 21 14h93c7 0 17 -7 20 -14l255 -700
c0 -23 -5 -28 -20 -28h-94zM343 510l-89 -244h177zM317 749c-7 0 -12 3 -16 8l-88 105c-4 5 -6 9 -6 14c0 11 10 20 22 20h88c9 0 15 -4 18 -11l53 -105c2 -3 2 -7 2 -10c0 -11 -8 -21 -21 -21h-52z" />
    <glyph glyph-name="Aacute" unicode="&#xc1;" horiz-adv-x="687"
d="M343 572l119 -327h-238zM551 0h94l-255 700h-93l-255 -700h93l57 157h301zM369 770l88 105h-88l-52 -105h52zM551 -21c-7 0 -17 7 -20 14l-52 143h-272l-52 -143c-3 -7 -13 -14 -20 -14h-93c-11 0 -20 2 -20 28l254 700c2 6 12 14 21 14h93c7 0 17 -7 20 -14l255 -700
c0 -23 -5 -28 -20 -28h-94zM343 510l-89 -244h177zM385 757c-4 -5 -9 -8 -16 -8h-52c-12 0 -22 9 -22 20c0 4 1 7 3 11l53 105c3 7 9 11 18 11h88c12 0 21 -9 21 -20c0 -5 -2 -9 -6 -14z" />
    <glyph glyph-name="Acircumflex" unicode="&#xc2;" horiz-adv-x="687"
d="M343 572l119 -327h-238zM551 0h94l-255 700h-93l-255 -700h93l57 157h301zM395 770h53l-70 105h-70l-70 -105h52l53 63zM551 -21c-7 0 -17 7 -20 14l-52 143h-272l-52 -143c-3 -7 -13 -14 -20 -14h-93c-11 0 -20 2 -20 28l254 700c2 6 12 14 21 14h93c7 0 17 -7 20 -14
l255 -700c0 -23 -5 -28 -20 -28h-94zM395 749c-2 0 -11 2 -15 8l-37 44l-37 -44c-4 -5 -9 -8 -16 -8h-52c-14 0 -22 7 -22 19c0 4 1 9 4 13l70 105c3 6 13 10 18 10h70c5 0 15 -6 17 -10l70 -105c3 -4 5 -8 5 -13c0 -11 -9 -19 -22 -19h-53zM343 510l-89 -244h177z" />
    <glyph glyph-name="Atilde" unicode="&#xc3;" horiz-adv-x="687"
d="M343 572l119 -327h-238zM551 0h94l-255 700h-93l-255 -700h93l57 157h301zM428 873c-8 -28 -18 -42 -30 -42c-14 0 -34 8 -59 23c-25 16 -45 24 -59 24c-31 0 -54 -26 -69 -77l49 -27c8 28 18 42 30 42c13 0 33 -8 58 -23c27 -15 47 -23 60 -23c30 0 53 26 68 77z
M551 -21c-7 0 -17 7 -20 14l-52 143h-272l-52 -143c-3 -7 -13 -14 -20 -14h-93c-11 0 -20 2 -20 28l254 700c2 6 12 14 21 14h93c7 0 17 -7 20 -14l255 -700c0 -23 -5 -28 -20 -28h-94zM486 865l10 -24c-17 -61 -47 -92 -88 -92c-24 0 -44 9 -71 25c-22 14 -38 21 -47 21
c-3 0 -6 -9 -10 -26c-3 -12 -9 -14 -19 -16c-4 0 -7 1 -11 3l-49 26c-7 4 -11 12 -11 19c0 40 42 98 90 98c20 0 43 -9 70 -28l-1 1c23 -13 40 -20 49 -20c15 40 17 43 29 43c3 0 7 -1 10 -3zM343 510l-89 -244h177z" />
    <glyph glyph-name="Adieresis" unicode="&#xc4;" horiz-adv-x="687"
d="M343 572l119 -327h-238zM551 0h94l-255 700h-93l-255 -700h93l57 157h301zM300 814c0 24 -20 43 -44 43s-43 -19 -43 -43c0 -26 17 -44 43 -44c25 0 44 19 44 44zM475 814c0 24 -20 43 -44 43s-43 -19 -43 -43c0 -26 17 -44 43 -44c25 0 44 19 44 44zM551 -21
c-7 0 -17 7 -20 14l-52 143h-272l-52 -143c-3 -7 -13 -14 -20 -14h-93c-11 0 -20 2 -20 28l254 700c2 6 12 14 21 14h93c7 0 17 -7 20 -14l255 -700c0 -23 -5 -28 -20 -28h-94zM343 510l-89 -244h177zM321 814c0 -37 -28 -65 -65 -65c-36 0 -64 28 -64 65c0 36 28 64 64 64
s65 -28 65 -64zM496 814c0 -37 -28 -65 -65 -65c-36 0 -64 28 -64 65c0 36 28 64 64 64s65 -28 65 -64z" />
    <glyph glyph-name="Aring" unicode="&#xc5;" horiz-adv-x="687"
d="M343 572l119 -327h-238zM404 761c0 -35 -26 -61 -61 -61c-36 0 -61 25 -61 61c0 35 26 61 61 61c34 0 61 -27 61 -61zM551 0h94l-248 682c28 19 42 45 42 79c0 53 -43 96 -96 96c-54 0 -96 -42 -96 -96c0 -35 14 -61 43 -80l-248 -681h93l57 157h301zM551 -21
c-7 0 -17 7 -20 14l-52 143h-272l-52 -143c-3 -7 -13 -14 -20 -14h-93c-11 0 -20 2 -20 28l242 667c-25 21 -38 50 -38 87c0 65 52 117 117 117c64 0 117 -53 117 -117c0 -37 -12 -65 -37 -86l242 -668c0 -23 -5 -28 -20 -28h-94zM343 510l-89 -244h177zM383 761
c0 22 -18 40 -40 40c-23 0 -40 -17 -40 -40c0 -24 16 -40 40 -40c23 0 40 17 40 40z" />
    <glyph glyph-name="AE" unicode="&#xc6;" horiz-adv-x="1039"
d="M343 572l119 -327h-238zM551 0h403v87h-315v219h227v88h-227v218h315v88h-403v-443l-161 443h-93l-255 -700h93l57 157h301zM551 -21c-7 0 -17 7 -20 14l-52 143h-272l-52 -143c-3 -7 -13 -14 -20 -14h-93c-11 0 -20 2 -20 28l254 700c2 6 12 14 21 14h93
c7 0 17 -7 20 -14l120 -330v323c0 11 11 21 21 21h403c10 0 21 -11 21 -21v-88c0 -10 -10 -21 -21 -21h-294v-176h206c11 0 21 -10 21 -21v-88c0 -12 -9 -21 -21 -21h-206v-177h294c11 0 21 -10 21 -21v-87c0 -10 -11 -21 -21 -21h-403zM343 510l-89 -244h177z" />
    <glyph glyph-name="Ccedilla" unicode="&#xc7;" horiz-adv-x="768"
d="M628 150c-55 -53 -121 -80 -197 -80c-155 0 -280 125 -280 280s125 280 280 280c77 0 143 -27 197 -81l63 61c-71 71 -158 107 -260 107c-204 0 -367 -163 -367 -367c0 -191 140 -346 329 -366l-14 -63h26c24 0 44 -20 44 -44c0 -23 -20 -43 -44 -43h-61l-9 -27h70
c38 0 70 32 70 70c0 34 -23 62 -56 69l8 36c105 0 193 36 264 108zM706 105v-30c-72 -72 -159 -110 -262 -114l-1 -1c31 -15 53 -49 53 -83c0 -48 -43 -91 -91 -91h-70c-16 0 -20 8 -20 28l9 27c3 8 11 14 20 14h61c12 0 23 11 23 22c0 13 -10 23 -23 23h-26
c-15 0 -20 6 -20 26l8 40c-186 29 -324 192 -324 384c0 215 173 388 388 388c108 0 200 -38 275 -113c5 -5 7 -10 7 -16c0 -5 -2 -10 -7 -14l-63 -60c-4 -4 -9 -6 -15 -6s-11 2 -15 6c-51 49 -112 74 -182 74c-144 0 -259 -115 -259 -259s115 -259 259 -259
c70 0 131 25 182 74c4 4 9 6 15 6s11 -2 15 -6z" />
    <glyph glyph-name="Egrave" unicode="&#xc8;" horiz-adv-x="661"
d="M86 0h490v87h-403v219h315v88h-315v218h403v88h-490v-700zM304 770h53l-53 105h-87zM86 -21c-11 0 -21 10 -21 21v700c0 11 10 21 21 21h490c10 0 21 -11 21 -21v-88c0 -10 -10 -21 -21 -21h-382v-176h294c11 0 21 -10 21 -21v-88c0 -12 -9 -21 -21 -21h-294v-177h382
c11 0 21 -10 21 -21v-87c0 -10 -11 -21 -21 -21h-490zM304 749c-2 0 -11 2 -15 8l-88 105c-4 5 -6 9 -6 14c0 11 10 20 22 20h87c9 0 15 -4 19 -11l52 -105c2 -4 3 -7 3 -11c0 -11 -9 -20 -21 -20h-53z" />
    <glyph glyph-name="Eacute" unicode="&#xc9;" horiz-adv-x="661"
d="M86 0h490v87h-403v219h315v88h-315v218h403v88h-490v-700zM357 770l87 105h-87l-53 -105h53zM86 -21c-11 0 -21 10 -21 21v700c0 11 10 21 21 21h490c10 0 21 -11 21 -21v-88c0 -10 -10 -21 -21 -21h-382v-176h294c11 0 21 -10 21 -21v-88c0 -12 -9 -21 -21 -21h-294
v-177h382c11 0 21 -10 21 -21v-87c0 -10 -11 -21 -21 -21h-490zM373 757c-4 -6 -13 -8 -16 -8h-53c-12 0 -21 9 -21 20c0 4 1 7 3 11l53 105c3 7 9 11 18 11h87c13 0 22 -8 22 -20c0 -5 -2 -9 -6 -14z" />
    <glyph glyph-name="Ecircumflex" unicode="&#xca;" horiz-adv-x="661"
d="M86 0h490v87h-403v219h315v88h-315v218h403v88h-490v-700zM383 770h53l-70 105h-70l-70 -105h52l53 63zM86 -21c-11 0 -21 10 -21 21v700c0 11 10 21 21 21h490c10 0 21 -11 21 -21v-88c0 -10 -10 -21 -21 -21h-382v-176h294c11 0 21 -10 21 -21v-88
c0 -12 -9 -21 -21 -21h-294v-177h382c11 0 21 -10 21 -21v-87c0 -10 -11 -21 -21 -21h-490zM383 749c-6 0 -13 4 -16 8l-36 44l-37 -44c-4 -5 -9 -8 -16 -8h-52c-14 0 -22 7 -22 19c0 4 1 9 4 13l70 105c3 6 11 10 18 10h70c5 0 15 -6 17 -10l70 -105c3 -4 5 -8 5 -13
c0 -11 -9 -19 -22 -19h-53z" />
    <glyph glyph-name="Edieresis" unicode="&#xcb;" horiz-adv-x="661"
d="M86 0h490v87h-403v219h315v88h-315v218h403v88h-490v-700zM287 814c0 24 -20 43 -44 43s-44 -19 -44 -43c0 -25 19 -44 44 -44s44 19 44 44zM462 814c0 24 -20 43 -44 43s-44 -19 -44 -43c0 -25 19 -44 44 -44s44 19 44 44zM86 -21c-11 0 -21 10 -21 21v700
c0 11 10 21 21 21h490c10 0 21 -11 21 -21v-88c0 -10 -10 -21 -21 -21h-382v-176h294c11 0 21 -10 21 -21v-88c0 -12 -9 -21 -21 -21h-294v-177h382c11 0 21 -10 21 -21v-87c0 -10 -11 -21 -21 -21h-490zM308 814c0 -37 -28 -65 -65 -65s-65 28 -65 65c0 36 29 64 65 64
s65 -28 65 -64zM483 814c0 -37 -28 -65 -65 -65s-65 28 -65 65c0 36 29 64 65 64s65 -28 65 -64z" />
    <glyph glyph-name="Igrave" unicode="&#xcc;" horiz-adv-x="259"
d="M86 0h87v700h-87v-700zM103 770h53l-53 105h-87zM86 -21c-11 0 -21 10 -21 21v700c0 11 10 21 21 21h87c11 0 21 -10 21 -21v-700c0 -11 -10 -21 -21 -21h-87zM103 749c-6 0 -13 4 -16 8l-87 105c-4 5 -6 9 -6 14c0 12 9 20 22 20h87c4 0 16 -3 19 -11l52 -105
c2 -4 3 -7 3 -11c0 -11 -9 -20 -21 -20h-53z" />
    <glyph glyph-name="Iacute" unicode="&#xcd;" horiz-adv-x="259"
d="M86 0h87v700h-87v-700zM156 770l87 105h-87l-53 -105h53zM86 -21c-11 0 -21 10 -21 21v700c0 11 10 21 21 21h87c11 0 21 -10 21 -21v-700c0 -11 -10 -21 -21 -21h-87zM171 757c-4 -6 -13 -8 -15 -8h-53c-12 0 -21 9 -21 20c0 4 1 7 3 11l52 105c3 8 15 11 19 11h87
c12 0 21 -9 21 -21c0 -4 -1 -9 -5 -13z" />
    <glyph glyph-name="Icircumflex" unicode="&#xce;" horiz-adv-x="259"
d="M86 0h87v700h-87v-700zM182 770h52l-70 105h-70l-70 -105h53l52 63zM86 -21c-11 0 -21 10 -21 21v700c0 11 10 21 21 21h87c11 0 21 -10 21 -21v-700c0 -11 -10 -21 -21 -21h-87zM182 749c-6 0 -13 4 -16 8l-37 44l-36 -44c-4 -6 -13 -8 -16 -8h-53c-13 0 -22 8 -22 18
c0 5 2 9 5 14l70 105c4 8 14 10 17 10h70c5 0 15 -4 18 -10l70 -105c3 -4 5 -8 5 -13c0 -11 -10 -19 -23 -19h-52z" />
    <glyph glyph-name="Idieresis" unicode="&#xcf;" horiz-adv-x="259"
d="M86 0h87v700h-87v-700zM86 814c0 24 -20 43 -44 43c-25 0 -44 -18 -44 -43c0 -26 18 -44 44 -44c25 0 44 19 44 44zM261 814c0 24 -20 43 -44 43c-25 0 -44 -18 -44 -43c0 -26 18 -44 44 -44c25 0 44 19 44 44zM86 -21c-11 0 -21 10 -21 21v700c0 11 10 21 21 21h87
c11 0 21 -10 21 -21v-700c0 -11 -10 -21 -21 -21h-87zM282 814c0 -37 -28 -65 -65 -65s-65 28 -65 65c0 36 29 64 65 64s65 -28 65 -64zM107 814c0 -37 -28 -65 -65 -65s-65 28 -65 65c0 36 29 64 65 64s65 -28 65 -64z" />
    <glyph glyph-name="Ntilde" unicode="&#xd1;" horiz-adv-x="731"
d="M558 0h88v700h-88v-543l-385 543h-87v-700h87v542zM451 873c-8 -28 -18 -42 -30 -42c-13 0 -33 8 -60 23c-24 16 -43 24 -58 24c-32 0 -55 -26 -69 -77l49 -27c7 28 16 42 29 42c14 0 34 -8 59 -23s45 -23 59 -23c31 0 54 26 69 77zM558 -21c-5 0 -14 4 -17 9l-347 488
v-476c0 -11 -10 -21 -21 -21h-87c-11 0 -21 10 -21 21v700c0 11 10 21 21 21h87c4 0 15 -4 18 -9l346 -488v476c0 11 11 21 21 21h88c10 0 21 -11 21 -21v-700c0 -10 -11 -21 -21 -21h-88zM508 865l11 -24c-18 -61 -48 -92 -89 -92c-20 0 -37 6 -70 25c-22 14 -38 21 -48 21
c-13 -39 -14 -40 -28 -42c-4 0 -7 1 -11 3l-49 26c-4 3 -12 9 -12 19c0 45 47 98 91 98c20 0 43 -9 70 -28l-1 1c23 -13 40 -20 49 -20c12 36 15 43 29 43c3 0 7 -1 10 -3z" />
    <glyph glyph-name="Ograve" unicode="&#xd2;" horiz-adv-x="863"
d="M711 350c0 -156 -124 -280 -280 -280c-155 0 -280 125 -280 280s125 280 280 280c156 0 280 -124 280 -280zM799 350c0 205 -162 367 -368 367s-367 -162 -367 -367c0 -203 161 -368 367 -368c204 0 368 164 368 368zM405 770h53l-53 105h-87zM820 350
c0 -217 -172 -389 -389 -389c-214 0 -388 171 -388 389c0 217 171 388 388 388s389 -171 389 -388zM690 350c0 144 -115 259 -259 259s-259 -115 -259 -259s115 -259 259 -259s259 115 259 259zM405 749c-6 0 -13 4 -16 8l-87 105c-4 5 -6 9 -6 14c0 12 9 20 22 20h87
c9 0 15 -4 18 -11l53 -105c2 -4 3 -7 3 -11c0 -11 -9 -20 -21 -20h-53z" />
    <glyph glyph-name="Oacute" unicode="&#xd3;" horiz-adv-x="863"
d="M711 350c0 -156 -124 -280 -280 -280c-155 0 -280 125 -280 280s125 280 280 280c156 0 280 -124 280 -280zM799 350c0 205 -162 367 -368 367s-367 -162 -367 -367c0 -203 161 -368 367 -368c204 0 368 164 368 368zM458 770l87 105h-87l-53 -105h53zM820 350
c0 -217 -172 -389 -389 -389c-214 0 -388 171 -388 389c0 217 171 388 388 388s389 -171 389 -388zM690 350c0 144 -115 259 -259 259s-259 -115 -259 -259s115 -259 259 -259s259 115 259 259zM473 757c-4 -6 -13 -8 -15 -8h-53c-13 0 -21 8 -21 19c0 4 1 8 3 12l52 105
c3 8 15 11 19 11h87c12 0 21 -9 21 -21c0 -4 -1 -9 -5 -13z" />
    <glyph glyph-name="Ocircumflex" unicode="&#xd4;" horiz-adv-x="863"
d="M711 350c0 -156 -124 -280 -280 -280c-155 0 -280 125 -280 280s125 280 280 280c156 0 280 -124 280 -280zM799 350c0 205 -162 367 -368 367s-367 -162 -367 -367c0 -203 161 -368 367 -368c204 0 368 164 368 368zM484 770h52l-70 105h-70l-70 -105h53l52 63zM820 350
c0 -217 -172 -389 -389 -389c-214 0 -388 171 -388 389c0 217 171 388 388 388s389 -171 389 -388zM690 350c0 144 -115 259 -259 259s-259 -115 -259 -259s115 -259 259 -259s259 115 259 259zM484 749c-7 0 -12 3 -16 8l-37 44l-36 -44c-4 -6 -13 -8 -16 -8h-53
c-13 0 -22 8 -22 18c0 5 2 9 5 14l70 105c4 8 14 10 17 10h70c5 0 15 -4 18 -10l70 -105c3 -4 4 -8 4 -12c0 -12 -9 -20 -22 -20h-52z" />
    <glyph glyph-name="Otilde" unicode="&#xd5;" horiz-adv-x="863"
d="M711 350c0 -156 -124 -280 -280 -280c-155 0 -280 125 -280 280s125 280 280 280c156 0 280 -124 280 -280zM799 350c0 205 -162 367 -368 367s-367 -162 -367 -367c0 -203 161 -368 367 -368c204 0 368 164 368 368zM516 873c-8 -28 -18 -42 -30 -42c-14 0 -34 8 -59 23
c-25 16 -45 24 -59 24c-31 0 -54 -26 -69 -77l49 -27c8 28 18 42 30 42c14 0 34 -8 59 -23s45 -23 59 -23c30 0 53 26 68 77zM820 350c0 -217 -172 -389 -389 -389c-214 0 -388 171 -388 389c0 217 171 388 388 388s389 -171 389 -388zM690 350c0 144 -115 259 -259 259
s-259 -115 -259 -259s115 -259 259 -259s259 115 259 259zM574 865l10 -24c-17 -61 -47 -92 -88 -92c-24 0 -44 9 -71 25c-22 14 -38 21 -47 21c-15 -40 -16 -40 -28 -42c-4 0 -7 1 -11 3l-49 26c-7 5 -12 12 -12 19c0 43 45 98 90 98c20 0 43 -9 70 -28l-1 1
c23 -13 40 -20 49 -20c3 0 6 9 10 26c3 10 10 17 20 17c3 0 7 -1 10 -3z" />
    <glyph glyph-name="Odieresis" unicode="&#xd6;" horiz-adv-x="863"
d="M711 350c0 -156 -124 -280 -280 -280c-155 0 -280 125 -280 280s125 280 280 280c156 0 280 -124 280 -280zM799 350c0 205 -162 367 -368 367s-367 -162 -367 -367c0 -203 161 -368 367 -368c204 0 368 164 368 368zM388 814c0 24 -20 43 -44 43c-25 0 -44 -18 -44 -43
c0 -26 18 -44 44 -44c25 0 44 19 44 44zM563 814c0 24 -20 43 -44 43c-25 0 -44 -18 -44 -43c0 -26 18 -44 44 -44c25 0 44 19 44 44zM820 350c0 -217 -172 -389 -389 -389c-214 0 -388 171 -388 389c0 217 171 388 388 388s389 -171 389 -388zM690 350
c0 144 -115 259 -259 259s-259 -115 -259 -259s115 -259 259 -259s259 115 259 259zM584 814c0 -37 -28 -65 -65 -65s-65 28 -65 65c0 36 29 64 65 64s65 -28 65 -64zM409 814c0 -37 -28 -65 -65 -65s-65 28 -65 65c0 36 29 64 65 64s65 -28 65 -64z" />
    <glyph glyph-name="Oslash" unicode="&#xd8;" horiz-adv-x="863"
d="M711 350c0 -156 -124 -280 -280 -280c-76 0 -141 27 -196 80l417 372c39 -51 59 -109 59 -172zM211 178c-40 50 -60 107 -60 172c0 155 125 280 280 280c77 0 143 -27 196 -80zM821 674l-27 26l-102 -92c-73 73 -160 109 -261 109c-206 0 -367 -162 -367 -367
c0 -87 27 -164 82 -231l-104 -93l26 -26l103 92c72 -73 159 -110 260 -110c204 0 368 164 368 368c0 87 -27 164 -82 231zM745 578c50 -69 75 -144 75 -228c0 -217 -172 -389 -389 -389c-99 0 -186 34 -261 102l-88 -79c-5 -3 -10 -5 -15 -5s-10 2 -14 6l-26 26
c-5 5 -7 10 -7 16c1 6 3 11 8 15l89 80c-49 65 -74 141 -74 228c0 217 171 388 388 388c101 0 188 -34 261 -101l88 79c5 3 9 5 14 5c6 0 11 -2 15 -6l27 -26c3 -4 5 -8 5 -13c0 -9 -1 -13 -6 -18zM172 350c0 -53 14 -101 41 -142l383 342c-47 39 -102 59 -165 59
c-144 0 -259 -115 -259 -259zM690 350c0 52 -14 99 -42 141l-381 -341c45 -39 100 -59 164 -59c144 0 259 115 259 259z" />
    <glyph glyph-name="Ugrave" unicode="&#xd9;" horiz-adv-x="714"
d="M637 700h-88v-438c0 -107 -85 -192 -192 -192c-109 0 -193 85 -193 192v438h-87v-438c0 -155 125 -280 280 -280s280 125 280 280v438zM331 770h52l-52 105h-88zM658 262c0 -167 -134 -301 -301 -301s-301 134 -301 301v438c0 11 11 21 21 21h87c11 0 21 -10 21 -21v-438
c0 -95 76 -171 172 -171c95 0 171 76 171 171v438c0 11 11 21 21 21h88c10 0 21 -11 21 -21v-438zM331 749c-7 0 -12 3 -16 8l-88 105c-4 5 -6 9 -6 14c0 11 10 20 22 20h88c9 0 15 -4 18 -11l53 -105c2 -3 2 -7 2 -10c0 -11 -8 -21 -21 -21h-52z" />
    <glyph glyph-name="Uacute" unicode="&#xda;" horiz-adv-x="714"
d="M637 700h-88v-438c0 -107 -85 -192 -192 -192c-109 0 -193 85 -193 192v438h-87v-438c0 -155 125 -280 280 -280s280 125 280 280v438zM383 770l88 105h-88l-52 -105h52zM658 262c0 -167 -134 -301 -301 -301s-301 134 -301 301v438c0 11 11 21 21 21h87
c11 0 21 -10 21 -21v-438c0 -95 76 -171 172 -171c95 0 171 76 171 171v438c0 11 11 21 21 21h88c10 0 21 -11 21 -21v-438zM399 757c-4 -5 -9 -8 -16 -8h-52c-12 0 -22 9 -22 20c0 4 1 7 3 11l53 105c3 7 9 11 18 11h88c12 0 21 -9 21 -20c0 -5 -2 -9 -6 -14z" />
    <glyph glyph-name="Ucircumflex" unicode="&#xdb;" horiz-adv-x="714"
d="M637 700h-88v-438c0 -107 -85 -192 -192 -192c-109 0 -193 85 -193 192v438h-87v-438c0 -155 125 -280 280 -280s280 125 280 280v438zM409 770h53l-70 105h-70l-70 -105h52l53 63zM658 262c0 -167 -134 -301 -301 -301s-301 134 -301 301v438c0 11 11 21 21 21h87
c11 0 21 -10 21 -21v-438c0 -95 76 -171 172 -171c95 0 171 76 171 171v438c0 11 11 21 21 21h88c10 0 21 -11 21 -21v-438zM409 749c-2 0 -11 2 -15 8l-37 44l-37 -44c-4 -5 -9 -8 -16 -8h-52c-14 0 -22 7 -22 19c0 4 1 9 4 13l70 105c3 6 13 10 18 10h70c5 0 15 -6 17 -10
l70 -105c3 -4 5 -8 5 -13c0 -11 -9 -19 -22 -19h-53z" />
    <glyph glyph-name="Udieresis" unicode="&#xdc;" horiz-adv-x="714"
d="M637 700h-88v-438c0 -107 -85 -192 -192 -192c-109 0 -193 85 -193 192v438h-87v-438c0 -155 125 -280 280 -280s280 125 280 280v438zM313 814c0 24 -20 43 -44 43s-43 -19 -43 -43c0 -26 17 -44 43 -44c25 0 44 19 44 44zM488 814c0 24 -20 43 -44 43s-43 -19 -43 -43
c0 -26 17 -44 43 -44c25 0 44 19 44 44zM658 262c0 -167 -134 -301 -301 -301s-301 134 -301 301v438c0 11 11 21 21 21h87c11 0 21 -10 21 -21v-438c0 -95 76 -171 172 -171c95 0 171 76 171 171v438c0 11 11 21 21 21h88c10 0 21 -11 21 -21v-438zM509 814
c0 -37 -28 -65 -65 -65c-35 0 -64 29 -64 65c0 35 29 64 64 64c36 0 65 -28 65 -64zM334 814c0 -37 -28 -65 -65 -65c-35 0 -64 29 -64 65c0 35 29 64 64 64c36 0 65 -28 65 -64z" />
    <glyph glyph-name="germandbls" unicode="&#xdf;" horiz-adv-x="688"
d="M611 210c0 82 -49 148 -137 184c68 27 102 73 102 140c0 114 -91 183 -241 183c-143 0 -249 -124 -249 -280v-525h87v525c0 109 70 193 162 193c102 0 153 -32 153 -96c0 -55 -71 -97 -157 -97h-53v-87h53c109 0 192 -59 192 -140c0 -86 -77 -140 -192 -140
c-22 0 -45 3 -70 8l-21 -84c30 -8 60 -12 91 -12c165 0 280 93 280 228zM632 210c0 -148 -124 -249 -301 -249c-78 -1 -111 10 -111 38l21 84c2 9 11 16 20 16c21 -3 55 -7 70 -8c103 0 171 47 171 119c0 67 -76 119 -171 119h-53c-12 0 -21 9 -21 21v87c0 12 9 21 21 21h53
c71 0 136 34 136 76c0 50 -44 75 -132 75c-79 0 -141 -75 -141 -172v-525c0 -11 -10 -21 -21 -21h-87c-11 0 -21 10 -21 21v525c0 168 115 301 270 301c161 0 262 -78 262 -204c0 -62 -25 -108 -76 -139c69 -38 111 -108 111 -185z" />
    <glyph glyph-name="agrave" unicode="&#xe0;" horiz-adv-x="622"
d="M311 515l107 -295h-214zM498 0h85l-230 630h-84l-229 -630h83l52 142h271zM287 693h47l-47 94h-79zM498 -21c-7 0 -17 7 -20 14l-47 128h-241l-47 -128c-3 -7 -13 -14 -20 -14h-83c-11 0 -20 2 -20 28l228 630c2 6 12 14 21 14h84c7 0 19 -8 21 -14l229 -630
c0 -21 -5 -28 -20 -28h-85zM311 453l-77 -212h154zM287 672c-6 0 -13 4 -16 8l-79 94c-4 5 -6 9 -6 14c0 11 10 20 22 20h79c9 0 15 -4 18 -11l48 -94c2 -3 2 -7 2 -10c0 -11 -8 -21 -21 -21h-47z" />
    <glyph glyph-name="aacute" unicode="&#xe1;" horiz-adv-x="622"
d="M311 515l107 -295h-214zM498 0h85l-230 630h-84l-229 -630h83l52 142h271zM334 693l79 94h-79l-47 -94h47zM498 -21c-7 0 -17 7 -20 14l-47 128h-241l-47 -128c-3 -7 -13 -14 -20 -14h-83c-11 0 -20 2 -20 28l228 630c2 6 12 14 21 14h84c7 0 19 -8 21 -14l229 -630
c0 -21 -5 -28 -20 -28h-85zM311 453l-77 -212h154zM350 680c-4 -5 -9 -8 -16 -8h-47c-13 0 -21 8 -21 19c0 4 1 8 3 12l47 94c3 7 9 11 18 11h79c12 0 21 -9 21 -21c0 -4 -1 -9 -5 -13z" />
    <glyph glyph-name="acircumflex" unicode="&#xe2;" horiz-adv-x="622"
d="M311 515l107 -295h-214zM498 0h85l-230 630h-84l-229 -630h83l52 142h271zM358 693h47l-63 94h-63l-63 -94h47l48 57zM498 -21c-7 0 -17 7 -20 14l-47 128h-241l-47 -128c-3 -7 -13 -14 -20 -14h-83c-11 0 -20 2 -20 28l228 630c2 6 12 14 21 14h84c7 0 19 -8 21 -14
l229 -630c0 -21 -5 -28 -20 -28h-85zM358 672c-7 0 -12 3 -16 8l-31 37l-32 -37c-4 -5 -9 -8 -16 -8h-47c-13 0 -22 8 -22 18c0 5 2 9 5 14l63 95c4 7 14 9 17 9h63c5 0 15 -5 18 -9l63 -95c3 -4 4 -8 4 -12c0 -12 -9 -20 -22 -20h-47zM311 453l-77 -212h154z" />
    <glyph glyph-name="atilde" unicode="&#xe3;" horiz-adv-x="622"
d="M311 515l107 -295h-214zM498 0h85l-230 630h-84l-229 -630h83l52 142h271zM387 786c-7 -25 -16 -38 -27 -38c-12 0 -30 7 -53 20c-23 15 -40 22 -53 22c-27 0 -48 -23 -62 -70l44 -24c7 26 15 39 26 39c13 0 31 -7 54 -22c26 -15 39 -20 53 -20c27 0 48 23 61 69z
M498 -21c-7 0 -17 7 -20 14l-47 128h-241l-47 -128c-3 -7 -13 -14 -20 -14h-83c-11 0 -20 2 -20 28l228 630c2 6 12 14 21 14h84c7 0 19 -8 21 -14l229 -630c0 -21 -5 -28 -20 -28h-85zM440 780l11 -24c-16 -56 -43 -84 -82 -84c-17 0 -34 6 -65 23c-19 13 -33 19 -42 19
c0 -14 -9 -37 -24 -39c-4 0 -7 1 -11 3l-45 24c-7 4 -12 11 -12 18c0 38 42 91 84 91c18 0 39 -8 64 -24c20 -12 34 -18 42 -18c12 36 13 38 26 38c3 0 7 -1 10 -3zM311 453l-77 -212h154z" />
    <glyph glyph-name="adieresis" unicode="&#xe4;" horiz-adv-x="622"
d="M311 515l107 -295h-214zM498 0h85l-230 630h-84l-229 -630h83l52 142h271zM272 732c0 23 -17 40 -39 40c-23 0 -40 -17 -40 -40s16 -39 40 -39c23 0 39 16 39 39zM430 732c0 22 -18 40 -40 40s-39 -17 -39 -40s16 -39 39 -39s40 17 40 39zM498 -21c-7 0 -17 7 -20 14
l-47 128h-241l-47 -128c-3 -7 -13 -14 -20 -14h-83c-11 0 -20 2 -20 28l228 630c2 6 12 14 21 14h84c7 0 19 -8 21 -14l229 -630c0 -21 -5 -28 -20 -28h-85zM311 453l-77 -212h154zM293 732c0 -26 -19 -60 -60 -60c-35 0 -61 25 -61 60s26 61 61 61c33 0 60 -27 60 -61z
M451 732c0 -34 -27 -60 -61 -60c-35 0 -60 25 -60 60c0 34 26 61 60 61c33 0 61 -26 61 -61z" />
    <glyph glyph-name="aring" unicode="&#xe5;" horiz-adv-x="622"
d="M311 515l107 -295h-214zM366 685c0 -31 -24 -55 -55 -55s-56 24 -56 55s25 55 56 55s55 -24 55 -55zM498 0h85l-223 613c25 18 37 42 37 72c0 47 -41 87 -86 87c-47 0 -87 -40 -87 -87c0 -31 13 -55 38 -73l-222 -612h83l52 142h271zM498 -21c-7 0 -17 7 -20 14l-47 128
h-241l-47 -128c-3 -7 -13 -14 -20 -14h-83c-11 0 -20 2 -20 28l217 598c-23 20 -34 47 -34 80c0 59 49 108 108 108c58 0 107 -50 107 -108c0 -34 -11 -60 -33 -79l218 -599c0 -21 -5 -28 -20 -28h-85zM311 453l-77 -212h154zM345 685c0 19 -15 34 -34 34
c-20 0 -35 -15 -35 -34s15 -34 35 -34c19 0 34 15 34 34z" />
    <glyph glyph-name="ae" unicode="&#xe6;" horiz-adv-x="940"
d="M311 515l107 -295h-214zM498 0h362v79h-283v197h204v78h-204v197h283v79h-362v-398l-145 398h-84l-229 -630h83l52 142h271zM498 -21c-7 0 -17 7 -20 14l-47 128h-241l-47 -128c-3 -7 -13 -14 -20 -14h-83c-11 0 -20 2 -20 28l228 630c2 6 12 14 21 14h84
c7 0 19 -8 21 -14l103 -285v278c0 11 10 21 21 21h362c10 0 21 -11 21 -21v-79c0 -10 -10 -21 -21 -21h-262v-155h183c12 0 21 -9 21 -21v-78c0 -12 -9 -21 -21 -21h-183v-155h262c10 0 21 -11 21 -21v-79c0 -10 -11 -21 -21 -21h-362zM311 453l-77 -212h154z" />
    <glyph glyph-name="ccedilla" unicode="&#xe7;" horiz-adv-x="696"
d="M568 136c-49 -49 -108 -73 -178 -73c-139 0 -252 113 -252 252s113 252 252 252c69 0 129 -24 178 -73l56 55c-65 65 -143 97 -234 97c-182 0 -331 -149 -331 -331c0 -170 126 -310 296 -329l-12 -57h24c22 0 39 -17 39 -39c0 -21 -18 -40 -39 -40h-56l-7 -23h63
c34 0 63 29 63 63c0 30 -21 54 -51 61l8 33c92 0 171 31 237 97zM639 96v-30c-65 -65 -142 -99 -232 -103c28 -15 44 -43 44 -73c0 -46 -38 -84 -84 -84h-63c-13 0 -21 6 -21 28l8 23c3 10 16 14 20 14h56c9 0 18 9 18 19c0 4 -4 18 -18 18h-24c-17 0 -20 3 -20 25l7 35
c-169 29 -292 175 -292 347c0 196 156 352 352 352c98 0 181 -35 249 -104c4 -4 6 -9 6 -15c0 -5 -2 -10 -6 -14l-56 -55c-5 -3 -10 -5 -15 -5s-10 2 -15 5c-45 45 -100 67 -163 67c-128 0 -231 -103 -231 -231s103 -231 231 -231c63 0 117 22 163 66c4 4 9 6 15 6
s11 -2 15 -6z" />
    <glyph glyph-name="egrave" unicode="&#xe8;" horiz-adv-x="599"
d="M80 0h441v79h-363v197h284v78h-284v197h363v79h-441v-630zM276 693h48l-48 94h-78zM80 -21c-11 0 -21 10 -21 21v630c0 11 10 21 21 21h441c10 0 21 -11 21 -21v-79c0 -10 -10 -21 -21 -21h-342v-155h263c11 0 21 -10 21 -21v-78c0 -11 -10 -21 -21 -21h-263v-155h342
c10 0 21 -11 21 -21v-79c0 -10 -11 -21 -21 -21h-441zM276 672c-2 0 -11 2 -15 8l-79 94c-4 5 -6 9 -6 14c0 12 9 20 22 20h78c9 0 15 -4 19 -11l47 -94c2 -4 3 -7 3 -11c0 -11 -9 -20 -21 -20h-48z" />
    <glyph glyph-name="eacute" unicode="&#xe9;" horiz-adv-x="599"
d="M80 0h441v79h-363v197h284v78h-284v197h363v79h-441v-630zM324 693l78 94h-78l-48 -94h48zM80 -21c-11 0 -21 10 -21 21v630c0 11 10 21 21 21h441c10 0 21 -11 21 -21v-79c0 -10 -10 -21 -21 -21h-342v-155h263c11 0 21 -10 21 -21v-78c0 -11 -10 -21 -21 -21h-263v-155
h342c10 0 21 -11 21 -21v-79c0 -10 -11 -21 -21 -21h-441zM339 680c-4 -6 -13 -8 -15 -8h-48c-12 0 -21 9 -21 20c0 4 1 7 3 11l47 94c3 8 15 11 19 11h78c13 0 22 -8 22 -20c0 -5 -2 -9 -6 -14z" />
    <glyph glyph-name="ecircumflex" unicode="&#xea;" horiz-adv-x="599"
d="M80 0h441v79h-363v197h284v78h-284v197h363v79h-441v-630zM347 693h48l-63 94h-63l-63 -94h47l47 57zM80 -21c-11 0 -21 10 -21 21v630c0 11 10 21 21 21h441c10 0 21 -11 21 -21v-79c0 -10 -10 -21 -21 -21h-342v-155h263c11 0 21 -10 21 -21v-78c0 -11 -10 -21 -21 -21
h-263v-155h342c10 0 21 -11 21 -21v-79c0 -10 -11 -21 -21 -21h-441zM347 672c-2 0 -11 2 -15 8l-32 37l-31 -37c-4 -6 -13 -8 -16 -8h-47c-13 0 -23 8 -23 19c0 5 2 9 5 13l63 95c5 7 15 9 18 9h63c5 0 14 -5 17 -9l63 -95c3 -4 5 -8 5 -13c0 -11 -9 -19 -22 -19h-48z" />
    <glyph glyph-name="edieresis" unicode="&#xeb;" horiz-adv-x="599"
d="M80 0h441v79h-363v197h284v78h-284v197h363v79h-441v-630zM261 732c0 22 -18 40 -40 40s-39 -17 -39 -40s16 -39 39 -39s40 17 40 39zM418 732c0 23 -17 40 -39 40c-23 0 -40 -17 -40 -40s16 -39 40 -39c23 0 39 16 39 39zM80 -21c-11 0 -21 10 -21 21v630
c0 11 10 21 21 21h441c10 0 21 -11 21 -21v-79c0 -10 -10 -21 -21 -21h-342v-155h263c11 0 21 -10 21 -21v-78c0 -11 -10 -21 -21 -21h-263v-155h342c10 0 21 -11 21 -21v-79c0 -10 -11 -21 -21 -21h-441zM282 732c0 -34 -27 -60 -61 -60c-35 0 -60 25 -60 60
c0 34 26 61 60 61s61 -27 61 -61zM439 732c0 -26 -19 -60 -60 -60c-35 0 -61 25 -61 60s26 61 61 61c33 0 60 -27 60 -61z" />
    <glyph glyph-name="igrave" unicode="&#xec;" horiz-adv-x="237"
d="M80 0h78v630h-78v-630zM95 693h48l-48 94h-78zM80 -21c-11 0 -21 10 -21 21v630c0 11 10 21 21 21h78c11 0 21 -10 21 -21v-630c0 -11 -10 -21 -21 -21h-78zM95 672c-2 0 -11 2 -15 8l-79 94c-4 5 -6 9 -6 14c0 12 9 20 22 20h78c4 0 16 -3 19 -11l47 -94
c2 -4 3 -7 3 -11c0 -11 -9 -20 -21 -20h-48z" />
    <glyph glyph-name="iacute" unicode="&#xed;" horiz-adv-x="237"
d="M80 0h78v630h-78v-630zM143 693l78 94h-78l-48 -94h48zM80 -21c-11 0 -21 10 -21 21v630c0 11 10 21 21 21h78c11 0 21 -10 21 -21v-630c0 -11 -10 -21 -21 -21h-78zM158 680c-4 -6 -13 -8 -15 -8h-48c-12 0 -21 9 -21 20c0 4 1 7 3 11l47 94c3 8 15 11 19 11h78
c13 0 22 -8 22 -20c0 -5 -2 -9 -6 -14z" />
    <glyph glyph-name="icircumflex" unicode="&#xee;" horiz-adv-x="237"
d="M80 0h78v630h-78v-630zM166 693h47l-63 94h-63l-63 -94h48l47 57zM80 -21c-11 0 -21 10 -21 21v630c0 11 10 21 21 21h78c11 0 21 -10 21 -21v-630c0 -11 -10 -21 -21 -21h-78zM166 672c-6 0 -13 4 -16 8l-31 37l-32 -37c-4 -6 -13 -8 -15 -8h-48c-13 0 -22 8 -22 18
c0 5 2 9 5 14l63 95c4 7 14 9 17 9h63c6 0 16 -5 18 -9l63 -95c3 -4 5 -8 5 -13c0 -11 -10 -19 -23 -19h-47z" />
    <glyph glyph-name="idieresis" unicode="&#xef;" horiz-adv-x="237"
d="M80 0h78v630h-78v-630zM80 732c0 22 -18 40 -40 40s-39 -17 -39 -40s16 -39 39 -39s40 17 40 39zM237 732c0 23 -17 40 -39 40c-23 0 -40 -17 -40 -40s16 -39 40 -39c23 0 39 16 39 39zM80 -21c-11 0 -21 10 -21 21v630c0 11 10 21 21 21h78c11 0 21 -10 21 -21v-630
c0 -11 -10 -21 -21 -21h-78zM258 732c0 -26 -19 -60 -60 -60c-35 0 -61 25 -61 60s26 61 61 61c33 0 60 -27 60 -61zM101 732c0 -34 -27 -60 -61 -60c-35 0 -60 25 -60 60c0 34 26 61 60 61c33 0 61 -26 61 -61z" />
    <glyph glyph-name="ntilde" unicode="&#xf1;" horiz-adv-x="662"
d="M505 0h79v630h-79v-488l-347 488h-78v-630h78v488zM408 786c-7 -25 -16 -38 -27 -38c-13 0 -31 7 -54 20c-21 15 -38 22 -52 22c-29 0 -49 -23 -62 -70l43 -24c7 26 16 39 27 39c15 0 32 -7 53 -22c23 -13 41 -20 53 -20c27 0 48 23 62 69zM505 -21c-4 0 -15 4 -18 9
l-308 434v-422c0 -11 -10 -21 -21 -21h-78c-11 0 -21 10 -21 21v630c0 11 10 21 21 21h78c9 0 15 -3 18 -9l308 -434v422c0 11 10 21 21 21h79c10 0 21 -11 21 -21v-630c0 -10 -11 -21 -21 -21h-79zM461 780l10 -24c-16 -56 -43 -84 -82 -84c-17 0 -39 8 -64 23
c-19 13 -33 19 -42 19c-10 -36 -11 -37 -25 -39c-4 0 -7 1 -11 3l-44 24c-7 4 -12 10 -12 18c0 37 39 91 84 91c18 0 39 -8 64 -25l-1 1c20 -12 34 -18 43 -18c12 35 13 38 27 38c3 0 7 -1 10 -3z" />
    <glyph glyph-name="ograve" unicode="&#xf2;" horiz-adv-x="780"
d="M642 315c0 -140 -112 -252 -252 -252c-139 0 -252 113 -252 252s113 252 252 252c140 0 252 -112 252 -252zM721 315c0 184 -147 331 -331 331c-183 0 -331 -148 -331 -331c0 -184 147 -331 331 -331c185 0 331 146 331 331zM367 693h47l-47 94h-79zM742 315
c0 -197 -155 -352 -352 -352c-195 0 -352 157 -352 352c0 194 158 352 352 352c195 0 352 -157 352 -352zM621 315c0 128 -103 231 -231 231s-231 -103 -231 -231s103 -231 231 -231s231 103 231 231zM367 672c-7 0 -12 3 -16 8l-79 94c-4 5 -6 9 -6 14c0 11 10 20 22 20h79
c9 0 15 -4 18 -11l47 -94c2 -4 3 -7 3 -11c0 -11 -9 -20 -21 -20h-47z" />
    <glyph glyph-name="oacute" unicode="&#xf3;" horiz-adv-x="780"
d="M642 315c0 -140 -112 -252 -252 -252c-139 0 -252 113 -252 252s113 252 252 252c140 0 252 -112 252 -252zM721 315c0 184 -147 331 -331 331c-183 0 -331 -148 -331 -331c0 -184 147 -331 331 -331c185 0 331 146 331 331zM414 693l79 94h-79l-47 -94h47zM742 315
c0 -197 -155 -352 -352 -352c-195 0 -352 157 -352 352c0 194 158 352 352 352c195 0 352 -157 352 -352zM621 315c0 128 -103 231 -231 231s-231 -103 -231 -231s103 -231 231 -231s231 103 231 231zM430 680c-4 -6 -13 -8 -16 -8h-47c-12 0 -22 9 -22 20c0 4 1 7 3 11
l47 94c3 8 15 11 19 11h79c12 0 21 -9 21 -20c0 -5 -2 -9 -6 -14z" />
    <glyph glyph-name="ocircumflex" unicode="&#xf4;" horiz-adv-x="780"
d="M642 315c0 -140 -112 -252 -252 -252c-139 0 -252 113 -252 252s113 252 252 252c140 0 252 -112 252 -252zM721 315c0 184 -147 331 -331 331c-183 0 -331 -148 -331 -331c0 -184 147 -331 331 -331c185 0 331 146 331 331zM437 693h48l-63 94h-63l-63 -94h47l47 57z
M742 315c0 -197 -155 -352 -352 -352c-195 0 -352 157 -352 352c0 194 158 352 352 352c195 0 352 -157 352 -352zM621 315c0 128 -103 231 -231 231s-231 -103 -231 -231s103 -231 231 -231s231 103 231 231zM437 672c-2 0 -11 2 -15 8l-32 37l-31 -37c-4 -6 -13 -8 -16 -8
h-47c-14 0 -22 7 -22 19c0 4 1 9 4 13l63 95c4 7 15 9 18 9h63c5 0 14 -5 17 -9l63 -95c3 -4 5 -8 5 -13c0 -11 -9 -19 -22 -19h-48z" />
    <glyph glyph-name="otilde" unicode="&#xf5;" horiz-adv-x="780"
d="M642 315c0 -140 -112 -252 -252 -252c-139 0 -252 113 -252 252s113 252 252 252c140 0 252 -112 252 -252zM721 315c0 184 -147 331 -331 331c-183 0 -331 -148 -331 -331c0 -184 147 -331 331 -331c185 0 331 146 331 331zM466 786c-7 -25 -16 -38 -26 -38
c-12 0 -30 7 -53 20c-23 15 -41 22 -54 22c-29 0 -49 -23 -62 -70l45 -24c7 26 15 39 26 39c15 0 32 -7 53 -22c23 -13 41 -20 54 -20c27 0 48 23 61 69zM742 315c0 -197 -155 -352 -352 -352c-195 0 -352 157 -352 352c0 194 158 352 352 352c195 0 352 -157 352 -352z
M621 315c0 128 -103 231 -231 231s-231 -103 -231 -231s103 -231 231 -231s231 103 231 231zM520 780l10 -24c-16 -56 -43 -84 -81 -84c-18 0 -30 4 -62 22c-19 13 -34 20 -45 20c-4 -25 -13 -40 -25 -40c-3 0 -7 1 -11 4l-44 24c-7 4 -12 10 -12 18c0 36 38 91 83 91
c19 0 40 -8 65 -25l-1 1c20 -12 34 -18 43 -18c5 25 13 39 25 39c3 0 7 -1 11 -4z" />
    <glyph glyph-name="odieresis" unicode="&#xf6;" horiz-adv-x="780"
d="M642 315c0 -140 -112 -252 -252 -252c-139 0 -252 113 -252 252s113 252 252 252c140 0 252 -112 252 -252zM721 315c0 184 -147 331 -331 331c-183 0 -331 -148 -331 -331c0 -184 147 -331 331 -331c185 0 331 146 331 331zM351 732c0 22 -18 40 -40 40s-39 -17 -39 -40
s16 -39 39 -39s40 17 40 39zM508 732c0 23 -17 40 -39 40s-39 -17 -39 -40s16 -39 39 -39s39 16 39 39zM742 315c0 -197 -155 -352 -352 -352c-195 0 -352 157 -352 352c0 194 158 352 352 352c195 0 352 -157 352 -352zM621 315c0 128 -103 231 -231 231
s-231 -103 -231 -231s103 -231 231 -231s231 103 231 231zM529 732c0 -26 -19 -60 -60 -60c-35 0 -60 25 -60 60c0 34 26 61 60 61c33 0 60 -27 60 -61zM372 732c0 -34 -27 -60 -61 -60c-35 0 -60 25 -60 60c0 34 26 61 60 61s61 -27 61 -61z" />
    <glyph glyph-name="divide" unicode="&#xf7;" horiz-adv-x="521"
d="M322 61c0 34 -27 61 -61 61c-27 0 -62 -19 -62 -61c0 -35 26 -61 62 -61c35 0 61 26 61 61zM86 227h350v70h-350v-70zM322 464c0 34 -27 61 -61 61c-27 0 -62 -19 -62 -61c0 -35 27 -62 62 -62c42 0 61 35 61 62zM86 206c-12 0 -21 9 -21 21v70c0 12 9 21 21 21h350
c11 0 21 -10 21 -21v-70c0 -10 -10 -21 -21 -21h-350zM343 61c0 -46 -36 -82 -82 -82c-47 0 -83 36 -83 82s36 82 83 82c46 0 82 -36 82 -82zM343 464c0 -47 -36 -83 -82 -83c-47 0 -83 36 -83 83c0 46 36 82 83 82c46 0 82 -36 82 -82z" />
    <glyph glyph-name="oslash" unicode="&#xf8;" horiz-adv-x="780"
d="M642 315c0 -140 -112 -252 -252 -252c-69 0 -128 24 -177 72l376 335c35 -47 53 -99 53 -155zM192 160c-30 41 -54 88 -54 155c0 139 113 252 252 252c69 0 128 -24 177 -72zM741 606l-24 24l-92 -83c-66 66 -144 99 -235 99c-183 0 -331 -148 -331 -331
c0 -78 25 -147 75 -208l-94 -83l24 -24l92 82c65 -65 143 -98 234 -98c185 0 331 146 331 331c0 77 -25 147 -74 208zM675 521c45 -63 67 -131 67 -206c0 -197 -155 -352 -352 -352c-89 0 -166 30 -235 90l-77 -69c-5 -3 -10 -5 -15 -5s-10 2 -14 6l-24 24c-4 4 -6 9 -6 15
s2 11 7 15l79 70c-45 61 -67 129 -67 206c0 194 158 352 352 352c90 0 168 -30 235 -91l78 70c5 3 9 5 14 5c6 0 11 -2 15 -6l24 -24c5 -5 7 -10 7 -16s-3 -11 -8 -14zM621 315c0 45 -12 86 -36 123l-340 -303c41 -34 89 -51 145 -51c128 0 231 103 231 231zM159 315
c0 -46 12 -87 36 -123l340 303c-42 34 -90 51 -145 51c-128 0 -231 -103 -231 -231z" />
    <glyph glyph-name="ugrave" unicode="&#xf9;" horiz-adv-x="647"
d="M576 630h-79v-394c0 -94 -77 -173 -173 -173c-98 0 -174 76 -174 173v394h-78v-394c0 -140 112 -252 252 -252c130 0 252 106 252 252v394zM300 693h47l-47 94h-79zM597 236c0 -150 -123 -273 -273 -273c-121 0 -273 89 -273 273v394c0 11 10 21 21 21h78
c11 0 21 -10 21 -21v-394c0 -87 66 -152 153 -152c83 0 152 69 152 152v394c0 11 11 21 21 21h79c10 0 21 -11 21 -21v-394zM300 672c-6 0 -13 4 -16 8l-78 94c-4 5 -7 10 -7 15c0 11 10 19 22 19h79c9 0 15 -4 18 -11l48 -94c2 -4 3 -7 3 -11c0 -11 -10 -20 -22 -20h-47z
" />
    <glyph glyph-name="uacute" unicode="&#xfa;" horiz-adv-x="647"
d="M576 630h-79v-394c0 -94 -77 -173 -173 -173c-98 0 -174 76 -174 173v394h-78v-394c0 -140 112 -252 252 -252c130 0 252 106 252 252v394zM347 693l79 94h-79l-47 -94h47zM597 236c0 -150 -123 -273 -273 -273c-121 0 -273 89 -273 273v394c0 11 10 21 21 21h78
c11 0 21 -10 21 -21v-394c0 -87 66 -152 153 -152c83 0 152 69 152 152v394c0 11 11 21 21 21h79c10 0 21 -11 21 -21v-394zM363 680c-4 -5 -9 -8 -16 -8h-47c-13 0 -21 8 -21 19c0 4 1 8 3 12l47 94c3 7 9 11 18 11h79c12 0 21 -9 21 -21c0 -4 -1 -9 -5 -13z" />
    <glyph glyph-name="ucircumflex" unicode="&#xfb;" horiz-adv-x="647"
d="M576 630h-79v-394c0 -94 -77 -173 -173 -173c-98 0 -174 76 -174 173v394h-78v-394c0 -140 112 -252 252 -252c130 0 252 106 252 252v394zM371 693h47l-63 94h-63l-63 -94h47l48 57zM597 236c0 -150 -123 -273 -273 -273c-121 0 -273 89 -273 273v394c0 11 10 21 21 21
h78c11 0 21 -10 21 -21v-394c0 -87 66 -152 153 -152c83 0 152 69 152 152v394c0 11 11 21 21 21h79c10 0 21 -11 21 -21v-394zM371 672c-6 0 -13 4 -16 8l-31 37l-32 -37c-4 -5 -9 -8 -16 -8h-47c-13 0 -22 8 -22 18c0 5 2 9 5 14l63 95c4 7 14 9 17 9h63c5 0 15 -5 18 -9
l63 -95c3 -4 4 -8 4 -12c0 -12 -9 -20 -22 -20h-47z" />
    <glyph glyph-name="udieresis" unicode="&#xfc;" horiz-adv-x="647"
d="M576 630h-79v-394c0 -94 -77 -173 -173 -173c-98 0 -174 76 -174 173v394h-78v-394c0 -140 112 -252 252 -252c130 0 252 106 252 252v394zM284 732c0 23 -17 40 -39 40s-39 -17 -39 -40s16 -39 39 -39s39 16 39 39zM442 732c0 22 -18 40 -40 40s-39 -17 -39 -40
s16 -39 39 -39s40 17 40 39zM597 236c0 -150 -123 -273 -273 -273c-121 0 -273 89 -273 273v394c0 11 10 21 21 21h78c11 0 21 -10 21 -21v-394c0 -87 66 -152 153 -152c83 0 152 69 152 152v394c0 11 11 21 21 21h79c10 0 21 -11 21 -21v-394zM463 732
c0 -34 -27 -60 -61 -60c-35 0 -60 25 -60 60c0 34 26 61 60 61s61 -27 61 -61zM305 732c0 -26 -19 -60 -60 -60c-35 0 -60 25 -60 60c0 34 26 61 60 61c33 0 60 -27 60 -61z" />
    <glyph glyph-name="ydieresis" unicode="&#xff;" horiz-adv-x="621"
d="M350 302l232 328h-98l-173 -246l-174 246h-97l231 -328v-302h79v302zM271 732c0 23 -17 40 -39 40c-23 0 -40 -17 -40 -40s16 -39 40 -39c23 0 39 16 39 39zM429 732c0 22 -18 40 -40 40s-39 -17 -39 -40s16 -39 39 -39s40 17 40 39zM371 294v-294c0 -10 -11 -21 -21 -21
h-79c-10 0 -21 10 -21 21v294l-227 324c-3 5 -5 9 -5 14c0 11 9 19 22 19h97c9 0 15 -3 18 -9l156 -221l155 221c3 5 14 9 18 9h98c12 0 22 -9 22 -20c0 -5 -2 -9 -5 -13zM292 732c0 -26 -19 -60 -60 -60c-34 0 -61 26 -61 60c0 35 28 61 61 61s60 -27 60 -61zM450 732
c0 -34 -27 -60 -61 -60c-35 0 -60 25 -60 60c0 34 26 61 60 61s61 -27 61 -61z" />
    <glyph glyph-name="nonbreakingspace" unicode="&#xa0;" horiz-adv-x="436"
 />
    <glyph glyph-name="Zcaron" unicode="&#x17d;" horiz-adv-x="714"
d="M77 0h560v87h-441l441 525v88h-560v-88h441l-441 -525v-87zM392 770l70 105h-53l-52 -63l-53 63h-52l70 -105h70zM77 -21c-10 0 -21 10 -21 21v94l417 497h-396c-12 0 -21 9 -21 21v88c0 11 11 21 21 21h560c10 0 21 -11 21 -21v-95l-417 -497h396c11 0 21 -10 21 -21
v-87c0 -10 -11 -21 -21 -21h-560zM409 759c-2 -4 -12 -10 -17 -10h-70c-5 0 -15 4 -18 10l-70 105c-3 4 -4 8 -4 12c0 12 9 20 22 20h52c7 0 12 -3 16 -8l37 -45l37 45c2 3 11 8 15 8h53c12 0 22 -9 22 -20c0 -4 -2 -8 -5 -12z" />
    <glyph glyph-name="zcaron" unicode="&#x17e;" horiz-adv-x="647"
d="M72 0h504v79h-398l398 472v79h-504v-79h396l-396 -472v-79zM355 693l63 94h-47l-47 -56l-48 56h-47l63 -94h63zM72 -21c-11 0 -21 10 -21 21v86l372 444h-351c-12 0 -21 9 -21 21v79c0 11 10 21 21 21h504c10 0 21 -11 21 -21v-86l-374 -444h353c10 0 21 -11 21 -21v-79
c0 -10 -11 -21 -21 -21h-504zM373 682c-3 -6 -13 -10 -18 -10h-63c-3 0 -13 3 -17 10l-63 94c-3 5 -5 9 -5 13c0 11 10 19 22 19h47c4 0 14 -5 16 -7l32 -39l31 39c3 3 13 7 16 7h47c12 0 22 -9 22 -20c0 -4 -1 -8 -4 -12z" />
    <glyph glyph-name="Scaron" unicode="&#x160;" horiz-adv-x="714"
d="M637 189c0 83 -39 139 -118 169l-219 45c-79 19 -118 55 -118 110c0 69 72 117 175 117c102 0 175 -47 175 -117h87c0 116 -112 204 -262 204c-149 0 -263 -88 -263 -204c0 -85 40 -143 119 -173l218 -44c79 -18 118 -54 118 -107c0 -73 -75 -119 -192 -119
s-193 46 -193 119h-87c0 -119 119 -207 280 -207c160 0 280 87 280 207zM392 770l70 105h-53l-52 -63l-53 63h-52l70 -105h70zM658 189c0 -132 -128 -228 -301 -228c-172 0 -301 98 -301 228c0 11 11 21 21 21h87c11 0 21 -10 21 -21c0 -61 68 -98 172 -98
c105 0 171 38 171 98c0 43 -34 72 -101 87l1 -1c-82 15 -137 26 -221 45c-89 34 -134 98 -134 193c0 129 125 225 284 225s283 -96 283 -225c0 -12 -9 -21 -21 -21h-87c-12 0 -21 9 -21 21c0 58 -66 96 -154 96c-91 0 -154 -39 -154 -96c0 -65 46 -87 317 -134
c92 -35 138 -99 138 -190zM409 759c-2 -4 -12 -10 -17 -10h-70c-5 0 -15 4 -18 10l-70 105c-3 4 -4 8 -4 12c0 12 9 20 22 20h52c7 0 12 -3 16 -8l37 -45l37 45c2 3 11 8 15 8h53c12 0 22 -9 22 -20c0 -4 -2 -8 -5 -12z" />
    <glyph glyph-name="scaron" unicode="&#x161;" horiz-adv-x="647"
d="M576 170c0 74 -36 125 -107 152c-246 48 -303 61 -303 139c0 70 75 106 158 106c91 0 157 -43 157 -106h79c0 104 -103 185 -236 185c-134 0 -237 -80 -237 -185c0 -77 35 -128 106 -155c20 -3 69 -13 197 -40c71 -16 107 -48 107 -96c0 -65 -67 -107 -173 -107
s-174 41 -174 107h-78c0 -109 110 -186 252 -186c144 0 252 79 252 186zM355 693l63 94h-47l-47 -56l-48 56h-47l63 -94h63zM597 170c0 -121 -121 -207 -273 -207c-158 0 -273 87 -273 207c0 11 10 21 21 21h78c11 0 21 -10 21 -21c0 -54 57 -86 153 -86c94 0 152 34 152 86
c0 37 -30 63 -90 76l-200 41c-80 31 -120 89 -120 174c0 140 144 206 258 206c142 0 257 -85 257 -206c0 -10 -10 -21 -21 -21h-79c-12 0 -21 9 -21 21c0 50 -56 85 -136 85c-82 0 -137 -34 -137 -85c0 -38 30 -64 89 -78c13 -2 67 -13 196 -40c83 -32 125 -90 125 -173z
M373 682c-3 -6 -13 -10 -18 -10h-63c-3 0 -13 3 -17 10l-63 94c-3 5 -5 9 -5 13c0 11 10 19 22 19h47c4 0 14 -5 16 -7l32 -39l31 39c3 3 13 7 16 7h47c12 0 22 -9 22 -20c0 -4 -1 -8 -4 -12z" />
    <glyph glyph-name="brokenbar" unicode="&#xa6;" horiz-adv-x="259"
d="M86 -88h87v342h-87v-342zM86 359h87v341h-87v-341zM86 338c-12 0 -21 9 -21 21v341c0 11 10 21 21 21h87c11 0 21 -10 21 -21v-341c0 -12 -9 -21 -21 -21h-87zM86 -109c-11 0 -21 10 -21 21v342c0 11 10 21 21 21h87c11 0 21 -10 21 -21v-342c0 -11 -10 -21 -21 -21h-87z
" />
    <glyph glyph-name="macron" unicode="&#xaf;" horiz-adv-x="434"
d="M86 630h262v70h-262v-70zM86 609c-12 0 -21 9 -21 21v70c0 11 10 21 21 21h262c11 0 21 -10 21 -21v-70c0 -12 -9 -21 -21 -21h-262z" />
    <glyph glyph-name="twosuperior" unicode="&#xb2;" horiz-adv-x="434"
d="M348 350v44h-206c11 20 35 41 73 64c101 56 133 86 133 144c0 62 -56 107 -131 107c-77 0 -131 -42 -131 -103h43c0 37 33 59 85 59c54 0 90 -24 90 -63c0 -28 -19 -55 -56 -80l-105 -65c-38 -30 -57 -66 -57 -107h262zM86 329c-12 0 -21 9 -21 21c0 48 21 89 63 122
l108 68c31 19 47 40 47 62c0 25 -28 42 -69 42c-39 0 -64 -15 -64 -38c0 -12 -9 -21 -21 -21h-43c-12 0 -21 9 -21 21c0 73 63 124 152 124c86 0 152 -55 152 -128c0 -70 -10 -76 -181 -187h160c11 0 21 -10 21 -21v-44c0 -12 -9 -21 -21 -21h-262z" />
    <glyph glyph-name="threesuperior" unicode="&#xb3;" horiz-adv-x="439"
d="M353 455c0 42 -23 73 -68 92c34 14 51 37 51 70c0 56 -48 92 -123 92c-64 0 -103 -21 -118 -63l41 -15c8 23 34 34 77 34c53 0 79 -16 79 -48c0 -39 -46 -48 -105 -48v-44c88 0 123 -28 123 -70c0 -43 -38 -70 -97 -70c-45 0 -75 14 -90 41l-37 -22
c23 -42 65 -63 127 -63c83 0 140 46 140 114zM374 455c0 -81 -67 -135 -161 -135c-78 0 -149 44 -149 84c0 7 4 14 11 19l38 21c4 3 8 4 12 4c6 0 12 -4 17 -11c11 -21 34 -31 71 -31c47 0 76 18 76 49c0 29 -27 49 -102 49c-12 0 -21 9 -21 21v44c0 11 11 21 21 21h26
c16 0 30 3 42 8c11 6 16 12 16 19c0 18 -19 27 -58 27c-33 0 -52 -7 -56 -20c-3 -10 -11 -15 -19 -15l-50 17c-10 2 -11 6 -14 20c0 44 67 84 139 84c84 0 144 -45 144 -113c0 -30 -10 -53 -30 -69c31 -23 47 -54 47 -93z" />
    <glyph glyph-name="onesuperior" unicode="&#xb9;" horiz-adv-x="308"
d="M178 350h44v350h-44l-92 -93l28 -28l64 66v-295zM178 329c-12 0 -21 9 -21 21v243l-28 -29c-4 -4 -9 -6 -15 -6s-11 2 -15 6l-28 28c-4 4 -6 9 -6 15s2 11 6 15l93 93c2 2 11 6 14 6h44c11 0 21 -10 21 -21v-350c0 -12 -9 -21 -21 -21h-44z" />
    <glyph glyph-name="onequarter" unicode="&#xbc;" horiz-adv-x="521"
d="M303 228v-137h-117zM338 56h35v35h-35v189h-30l-158 -189v-35h153v-56h35v56zM86 332h350v35h-350v-35zM281 420h35v280h-35l-75 -74l23 -22l52 51v-235zM359 35v-35c0 -10 -11 -21 -21 -21h-35c-11 0 -21 10 -21 21v35h-132c-12 0 -21 9 -21 21v42l163 195
c2 4 13 8 16 8h30c10 0 21 -11 21 -21v-168h14c10 0 21 -11 21 -21v-35c0 -10 -10 -21 -21 -21h-14zM281 399c-12 0 -21 9 -21 21v185l-16 -16c-4 -4 -9 -6 -15 -6s-11 2 -15 6l-22 22c-5 4 -7 9 -7 14c0 6 2 11 7 15l74 75c2 2 9 6 15 6h35c10 0 21 -11 21 -21v-280
c0 -10 -10 -21 -21 -21h-35zM86 311c-12 0 -21 9 -21 21v35c0 12 9 21 21 21h350c11 0 21 -10 21 -21v-35c0 -10 -10 -21 -21 -21h-350zM232 112h50v59z" />
    <glyph glyph-name="onehalf" unicode="&#xbd;" horiz-adv-x="521"
d="M366 0v35h-165c11 18 30 35 59 52c87 51 106 67 106 114c0 49 -45 86 -104 86c-62 0 -105 -34 -105 -82h35c0 31 32 47 68 47c43 0 71 -20 71 -51s-16 -46 -88 -90c-58 -36 -86 -58 -86 -111h209zM86 332h350v35h-350v-35zM281 420h35v280h-35l-75 -74l23 -22l52 51v-235
zM157 -21c-11 0 -21 10 -21 21c0 64 31 89 94 127c63 39 80 53 80 74c0 20 -23 30 -50 30c-28 0 -47 -11 -47 -26c0 -11 -10 -21 -21 -21h-35c-12 0 -21 9 -21 21c0 60 53 103 126 103c71 0 125 -46 125 -107c0 -54 -41 -98 -136 -145h115c10 0 21 -11 21 -21v-35
c0 -10 -11 -21 -21 -21h-209zM281 399c-12 0 -21 9 -21 21v185l-16 -16c-4 -4 -9 -6 -15 -6s-11 2 -15 6l-22 22c-5 4 -7 9 -7 14c0 6 2 11 7 15l74 75c2 2 9 6 15 6h35c10 0 21 -11 21 -21v-280c0 -10 -10 -21 -21 -21h-35zM86 311c-12 0 -21 9 -21 21v35c0 12 9 21 21 21
h350c11 0 21 -10 21 -21v-35c0 -10 -10 -21 -21 -21h-350z" />
    <glyph glyph-name="threequarters" unicode="&#xbe;" horiz-adv-x="521"
d="M303 228v-137h-117zM338 56h35v35h-35v189h-30l-158 -189v-35h153v-56h35v56zM86 332h350v35h-350v-35zM368 504c0 35 -18 59 -55 73c27 12 41 31 41 56c0 46 -38 74 -98 74c-51 0 -82 -17 -94 -51l33 -12c6 19 26 28 61 28c42 0 63 -13 63 -39c0 -31 -38 -38 -84 -38
v-35c70 0 98 -23 98 -56c0 -35 -29 -56 -77 -56c-37 0 -60 11 -71 33l-31 -17c18 -34 52 -51 102 -51c64 0 112 37 112 91zM389 504c0 -66 -55 -112 -133 -112c-65 0 -124 39 -124 73c0 7 4 13 11 17l31 18c3 2 7 3 10 3c7 0 16 -5 19 -12c9 -15 26 -22 53 -22
c34 0 56 14 56 35c0 22 -21 35 -77 35c-12 0 -21 9 -21 21v35c0 11 11 21 21 21h21c22 0 42 8 42 17c0 12 -14 18 -42 18c-24 0 -38 -5 -41 -14c-2 -8 -11 -15 -19 -15l-41 14c-8 3 -14 12 -14 20c0 38 54 72 115 72c73 0 119 -37 119 -95c0 -22 -7 -40 -22 -55
c24 -18 36 -43 36 -74zM359 35v-35c0 -10 -11 -21 -21 -21h-35c-11 0 -21 10 -21 21v35h-132c-12 0 -21 9 -21 21v42l163 195c2 4 13 8 16 8h30c10 0 21 -11 21 -21v-168h14c10 0 21 -11 21 -21v-35c0 -10 -10 -21 -21 -21h-14zM86 311c-12 0 -21 9 -21 21v35
c0 12 9 21 21 21h350c11 0 21 -10 21 -21v-35c0 -10 -10 -21 -21 -21h-350zM232 112h50v59z" />
    <glyph glyph-name="Eth" unicode="&#xd0;" horiz-adv-x="841"
d="M676 350c0 -146 -116 -263 -262 -263h-175v237h175v70h-175v218h175c145 0 262 -117 262 -262zM764 350c0 194 -156 350 -350 350h-263v-306h-87v-70h87v-324h263c195 0 350 155 350 350zM785 350c0 -206 -165 -371 -371 -371h-263c-10 0 -21 10 -21 21v303h-66
c-12 0 -21 9 -21 21v70c0 11 10 21 21 21h66v285c0 11 11 21 21 21h263c206 0 371 -165 371 -371zM655 350c0 135 -106 241 -241 241h-154v-176h154c10 0 21 -11 21 -21v-70c0 -11 -10 -21 -21 -21h-154v-195h154c134 0 241 108 241 242z" />
    <glyph glyph-name="multiply" unicode="&#xd7;" horiz-adv-x="518"
d="M382 89l50 50l-123 123l123 124l-50 50l-123 -124l-123 124l-50 -50l123 -124l-123 -123l50 -50l123 124zM397 74c-4 -4 -9 -6 -15 -6s-11 2 -15 6l-108 109l-109 -109c-3 -4 -8 -6 -14 -6s-11 2 -15 6l-50 50c-4 4 -6 9 -6 15s2 11 6 15l108 108l-108 109
c-4 4 -6 9 -6 15s2 11 6 15l50 50c5 3 10 5 15 5c6 0 11 -2 14 -5l109 -109l108 109c5 3 10 5 15 5s10 -2 15 -5l50 -50c4 -4 6 -9 6 -15s-2 -11 -6 -15l-108 -109l108 -108c4 -4 6 -9 6 -15s-2 -11 -6 -15z" />
    <glyph glyph-name="Yacute" unicode="&#xdd;" horiz-adv-x="686"
d="M387 335l257 365h-109l-192 -273l-193 273h-108l257 -365v-335h88v335zM369 770l88 105h-88l-52 -105h52zM408 327v-327c0 -10 -11 -21 -21 -21h-88c-10 0 -21 10 -21 21v327l-254 361c-3 4 -5 8 -5 13c0 11 10 20 23 20h108c9 0 15 -3 18 -9l175 -248l175 248
c2 5 11 9 17 9h109c12 0 22 -9 22 -20c0 -5 -2 -9 -5 -13zM385 757c-4 -5 -9 -8 -16 -8h-52c-12 0 -22 9 -22 20c0 4 1 7 3 11l53 105c3 7 9 11 18 11h88c12 0 21 -9 21 -20c0 -5 -2 -9 -6 -14z" />
    <glyph glyph-name="Thorn" unicode="&#xde;" horiz-adv-x="657"
d="M514 350c0 -63 -56 -109 -131 -109h-210v218h210c73 0 131 -48 131 -109zM602 350c0 111 -96 197 -219 197h-210v153h-87v-700h87v153h210c122 0 219 87 219 197zM623 350c0 -122 -106 -218 -240 -218h-189v-132c0 -11 -10 -21 -21 -21h-87c-11 0 -21 10 -21 21v700
c0 11 10 21 21 21h87c11 0 21 -10 21 -21v-132h189c129 0 240 -94 240 -218zM493 350c0 50 -48 88 -110 88h-189v-176h189c62 0 110 38 110 88z" />
    <glyph glyph-name="eth" unicode="&#xf0;" horiz-adv-x="761"
d="M611 315c0 -132 -104 -236 -237 -236h-157v212h157v63h-157v197h157c132 0 237 -104 237 -236zM689 315c0 175 -140 315 -315 315h-236v-276h-79v-63h79v-291h236c175 0 315 139 315 315zM710 315c0 -188 -148 -336 -336 -336h-236c-10 0 -21 10 -21 21v270h-58
c-12 0 -21 9 -21 21v63c0 12 9 21 21 21h58v255c0 11 11 21 21 21h236c188 0 336 -148 336 -336zM590 315c0 120 -95 215 -216 215h-136v-155h136c12 0 21 -9 21 -21v-63c0 -12 -9 -21 -21 -21h-136v-170h136c121 0 216 95 216 215z" />
    <glyph glyph-name="yacute" unicode="&#xfd;" horiz-adv-x="621"
d="M350 302l232 328h-98l-173 -246l-174 246h-97l231 -328v-302h79v302zM334 693l79 94h-79l-47 -94h47zM371 294v-294c0 -10 -11 -21 -21 -21h-79c-10 0 -21 10 -21 21v294l-227 324c-3 5 -5 9 -5 14c0 11 9 19 22 19h97c9 0 15 -3 18 -9l156 -221l155 221c3 5 14 9 18 9
h98c12 0 22 -9 22 -20c0 -5 -2 -9 -5 -13zM350 680c-4 -5 -9 -8 -16 -8h-47c-13 0 -21 8 -21 19c0 4 1 8 3 12l47 94c3 7 9 11 18 11h79c12 0 21 -9 21 -21c0 -4 -1 -9 -5 -13z" />
    <glyph glyph-name="thorn" unicode="&#xfe;" horiz-adv-x="596"
d="M465 315c0 -67 -67 -99 -118 -99h-189v197h189c68 0 118 -42 118 -98zM544 315c0 100 -86 177 -197 177h-189v138h-78v-630h78v137h189c108 0 197 78 197 178zM565 315c0 -111 -98 -199 -218 -199h-168v-116c0 -11 -10 -21 -21 -21h-78c-11 0 -21 10 -21 21v630
c0 11 10 21 21 21h78c11 0 21 -10 21 -21v-117h168c121 0 218 -88 218 -198zM444 315c0 43 -43 77 -97 77h-168v-155h168c53 0 97 35 97 78z" />
    <glyph glyph-name="Euro" unicode="&#x20ac;" horiz-adv-x="839"
d="M753 647c-63 47 -135 70 -217 70c-160 0 -299 -101 -349 -253h-75l-26 -70h86l-2 -66v-22h-58l-26 -70h101c50 -153 189 -254 349 -254c66 0 128 17 186 51v107c-55 -47 -117 -70 -186 -70c-111 0 -209 64 -255 166h323l25 70h-369c-3 13 -3 18 -4 44c0 18 1 29 4 44h401
l26 70h-406c47 101 146 166 255 166c69 0 131 -23 186 -70zM742 553c-3 -9 -8 -13 -20 -15c-5 0 -10 2 -14 6c-49 43 -107 65 -172 65c-91 0 -165 -42 -220 -124h371c20 -1 20 -12 20 -28l-25 -70c-1 -3 -9 -14 -21 -14h-383v-46h351c15 1 20 -3 20 -28l-25 -70
c-3 -8 -12 -14 -20 -14h-288c50 -79 129 -124 220 -124c65 0 123 22 172 65c4 4 9 5 14 5c12 0 21 -9 21 -21v-107c0 -31 -118 -72 -207 -72c-164 0 -308 101 -364 254h-86c-15 0 -20 5 -20 28l27 70c1 4 9 14 19 14h36v46h-62c-15 0 -20 5 -20 28l27 70c1 4 9 14 19 14h59
c56 150 203 253 365 253c76 0 237 -42 237 -98z" />
  </font>
</defs>
</svg>
